<?xml version="1.0" standalone="no"?>
<!DOCTYPE svg PUBLIC "-//W3C//DTD SVG 20010904//EN"
 "http://www.w3.org/TR/2001/REC-SVG-20010904/DTD/svg10.dtd">
<svg version="1.0" xmlns="http://www.w3.org/2000/svg"
 width="32.000000pt" height="32.000000pt" viewBox="0 0 32.000000 32.000000"
 preserveAspectRatio="xMidYMid meet">

<g transform="translate(0.000000,32.000000) scale(0.100000,-0.100000)"
fill="#000000" stroke="none">
<path d="M130 300 c-8 -5 -11 -10 -5 -10 5 0 -6 -8 -25 -18 -47 -25 -83 -94
-75 -142 4 -19 18 -53 31 -76 l24 -42 90 1 c72 0 90 4 90 15 0 8 9 29 20 47
15 24 20 50 20 96 0 35 1 75 2 89 4 31 -29 41 -40 11 -7 -19 -9 -18 -50 10
-46 31 -59 34 -82 19z m-10 -234 c0 -3 -4 -8 -10 -11 -5 -3 -10 -1 -10 4 0 6
5 11 10 11 6 0 10 -2 10 -4z"/>
</g>
</svg>
