<?xml version="1.0" standalone="no"?>
<!DOCTYPE svg PUBLIC "-//W3C//DTD SVG 20010904//EN"
 "http://www.w3.org/TR/2001/REC-SVG-20010904/DTD/svg10.dtd">
<svg version="1.0" xmlns="http://www.w3.org/2000/svg"
 width="640.000000pt" height="940.000000pt" viewBox="0 0 640.000000 940.000000"
 preserveAspectRatio="xMidYMid meet">

<g transform="translate(0.000000,940.000000) scale(0.100000,-0.100000)"
fill="#000000" stroke="none">
<path d="M3790 8609 c-70 -8 -231 -54 -291 -85 -25 -12 -66 -38 -90 -56 -24
-19 -74 -48 -110 -65 -36 -18 -72 -40 -80 -50 -11 -13 -5 -12 24 6 59 36 66
19 8 -22 -34 -24 -51 -44 -51 -58 0 -12 -17 -37 -37 -55 -21 -20 -31 -34 -22
-34 22 -1 -29 -25 -106 -50 -38 -13 -76 -28 -82 -33 -16 -12 -16 3 0 24 7 8
56 48 110 87 53 40 97 74 97 77 0 3 -38 -22 -85 -54 -85 -59 -134 -100 -189
-159 -28 -30 -28 -31 -5 -25 13 3 29 10 36 15 30 23 289 78 265 57 -4 -4 -38
-23 -77 -43 -57 -29 -73 -42 -86 -73 -14 -32 -27 -42 -75 -62 -33 -13 -66 -30
-75 -37 -8 -8 -21 -14 -28 -14 -6 0 -31 -20 -54 -44 -51 -53 -92 -80 -107 -71
-7 4 -67 -50 -146 -129 -74 -76 -134 -133 -134 -129 1 13 82 128 121 170 20
22 69 66 110 99 98 78 161 146 211 229 4 6 -76 -71 -176 -170 -186 -182 -253
-261 -281 -328 -18 -42 -20 -159 -4 -189 15 -28 0 -80 -53 -182 -22 -43 -35
-76 -29 -72 17 11 84 136 101 190 14 42 21 50 44 53 21 3 26 1 20 -9 -4 -7 2
-4 14 6 15 13 22 15 22 6 0 -10 3 -10 15 0 8 7 13 16 10 20 -2 4 4 17 14 29
18 20 20 21 36 5 14 -14 18 -15 25 -3 5 7 11 11 14 8 12 -12 -27 -51 -45 -46
-29 8 -30 -6 -5 -38 l23 -29 29 23 c31 24 33 30 14 41 -8 5 -6 9 5 14 14 5 16
2 12 -14 -3 -13 1 -21 15 -26 16 -5 18 -8 7 -15 -10 -6 -5 -9 16 -9 29 -1 29
-2 7 -11 -30 -11 -56 -38 -48 -47 4 -3 11 0 16 8 7 11 11 11 24 1 8 -7 19 -10
24 -7 14 9 35 -45 22 -58 -15 -15 -12 -34 8 -39 15 -4 15 -5 0 -6 -9 0 -20 4
-23 9 -13 21 -34 9 -45 -26 -7 -22 -39 -61 -81 -101 -38 -37 -69 -74 -69 -84
0 -22 -97 -53 -147 -47 -18 2 -33 0 -33 -4 0 -14 -18 -9 -24 8 -3 8 -2 13 2
10 5 -3 22 -1 38 4 16 4 23 9 16 9 -8 1 -10 6 -6 14 5 8 2 8 -9 -2 -15 -12
-17 -11 -17 4 0 15 -3 15 -15 5 -20 -16 -30 -7 -49 45 l-15 40 0 -46 c-1 -25
4 -50 10 -56 8 -8 8 -13 0 -17 -6 -4 -11 -2 -11 5 0 8 -4 8 -15 -1 -17 -14
-18 -72 -3 -102 5 -10 19 -18 33 -18 21 0 23 -4 20 -37 -5 -61 5 -92 36 -110
22 -13 26 -20 17 -30 -9 -11 -16 -9 -37 10 -14 14 -50 36 -79 51 -30 14 -94
60 -143 101 -49 42 -89 70 -89 64 0 -15 61 -72 100 -96 17 -9 30 -23 30 -29 0
-6 10 -18 22 -26 42 -28 1 -27 -53 1 -46 25 -58 37 -84 90 -17 34 -51 82 -75
107 -50 50 -134 104 -165 104 -51 0 -150 89 -141 126 5 20 -1 35 -62 147 -38
69 -42 127 -12 157 24 24 25 30 5 30 -17 0 -20 27 -5 50 5 8 5 17 1 20 -13 8
-91 161 -91 178 0 23 14 6 44 -53 14 -27 26 -43 26 -35 0 23 -59 112 -70 105
-14 -9 -12 -63 4 -107 l13 -36 -34 35 c-18 20 -36 33 -40 30 -3 -4 3 -15 13
-24 26 -24 64 -74 64 -84 0 -18 -32 -8 -37 11 -3 11 -10 20 -15 20 -5 0 -6 -4
-3 -10 3 -5 -6 -12 -20 -16 -50 -13 -154 82 -156 142 0 27 -1 28 -11 8 -10
-21 10 -72 44 -115 20 -24 102 -69 126 -69 12 0 22 -6 22 -13 0 -8 9 -22 20
-32 11 -10 20 -28 20 -39 0 -17 -2 -18 -10 -6 -8 12 -10 12 -16 -3 -3 -9 1
-28 9 -41 9 -13 13 -33 11 -44 -3 -11 -1 -23 5 -26 6 -4 11 -20 11 -37 0 -16
9 -38 21 -50 15 -15 20 -29 16 -49 -3 -15 -1 -33 6 -40 17 -18 -48 -5 -150 30
-46 16 -85 25 -88 21 -6 -11 -81 3 -100 19 -19 16 -56 90 -45 90 4 0 19 -15
33 -34 15 -19 41 -39 59 -45 29 -10 27 -6 -27 41 -32 29 -78 68 -101 85 -23
18 -52 46 -64 63 -22 31 -50 40 -50 16 0 -8 9 -18 21 -21 11 -4 18 -9 16 -12
-12 -11 -47 10 -47 27 0 17 -4 18 -31 8 -24 -8 -40 -7 -75 7 -24 9 -44 23 -44
31 0 8 -4 14 -9 14 -5 0 -11 23 -15 50 -10 74 -14 80 -50 79 -31 -2 -31 -2 -3
-6 40 -6 28 -28 -15 -28 -27 0 -34 3 -27 12 8 9 2 9 -26 0 -30 -9 -38 -8 -52
6 -13 13 -14 20 -5 29 9 9 17 7 34 -8 21 -17 21 -16 -1 9 -14 15 -26 35 -27
44 -2 9 -11 28 -22 42 -28 39 -73 39 -123 2 -23 -16 -47 -27 -55 -24 -8 3 -17
-2 -20 -11 -4 -9 -14 -16 -23 -14 -15 2 -91 -64 -91 -81 0 -4 -18 -16 -41 -26
-86 -39 -90 -87 -14 -168 46 -49 58 -57 80 -51 14 3 25 12 25 19 0 7 16 33 35
59 29 36 42 46 65 46 35 0 38 -13 13 -65 -14 -30 -15 -39 -4 -57 9 -15 10 -23
2 -31 -14 -14 -14 -50 0 -64 8 -8 6 -19 -5 -42 -11 -21 -14 -43 -10 -70 4 -24
2 -41 -5 -45 -15 -10 -14 -63 2 -69 9 -3 9 -7 -1 -19 -9 -12 -10 -18 -2 -23 8
-5 5 -14 -9 -29 -47 -50 -51 -130 -9 -196 12 -19 22 -38 23 -42 1 -17 15 -19
15 -1 0 11 8 31 18 44 34 47 42 69 42 117 0 26 -6 57 -14 68 -20 28 -23 68 -7
87 10 12 10 27 3 62 -5 26 -6 48 -1 51 12 7 11 52 -1 56 -6 2 -2 19 10 40 16
31 18 42 8 63 -9 19 -9 28 0 37 15 15 16 64 2 73 -5 3 -10 12 -10 18 0 7 11
-1 25 -17 24 -27 27 -29 61 -18 36 11 38 10 93 -43 146 -138 144 -137 171
-131 27 5 75 -8 118 -32 12 -7 27 -10 33 -7 5 4 29 -13 52 -38 30 -33 54 -48
87 -56 82 -20 184 -53 235 -76 139 -63 269 -129 294 -151 16 -13 33 -24 38
-24 11 0 63 -53 63 -64 0 -4 10 -22 22 -38 21 -30 111 -78 146 -78 10 0 42
-25 72 -56 30 -30 93 -83 140 -116 47 -34 114 -87 150 -117 36 -31 81 -68 101
-83 34 -26 37 -32 49 -110 18 -130 39 -206 65 -249 14 -21 25 -41 25 -44 0 -3
9 -14 21 -26 14 -14 17 -24 11 -32 -6 -7 -17 -38 -25 -70 -12 -46 -24 -66 -59
-97 -23 -22 -48 -38 -55 -36 -7 3 -10 -1 -7 -8 6 -16 -125 -188 -137 -180 -5
3 -6 -3 -2 -12 5 -13 2 -16 -9 -12 -10 4 -21 -5 -32 -25 l-17 -32 20 24 c26
29 26 29 -4 -44 -13 -33 -25 -72 -25 -87 0 -19 -7 -29 -22 -34 -21 -6 -21 -8
-5 -13 18 -7 18 -8 0 -29 -10 -12 -32 -25 -49 -28 -27 -5 -32 -3 -37 18 -13
47 -7 81 21 113 15 19 49 63 77 99 27 36 54 66 59 66 4 0 2 8 -5 17 -11 13
-11 15 -1 9 16 -10 44 23 36 43 -4 12 -2 12 13 0 9 -8 14 -9 10 -2 -4 7 2 20
14 31 15 15 17 22 8 27 -8 5 -10 4 -5 -3 4 -7 2 -12 -5 -12 -16 0 -212 -195
-234 -234 -18 -30 -18 -31 0 -16 18 14 18 13 -1 -19 -10 -18 -29 -43 -40 -56
-32 -35 -79 -122 -102 -190 -40 -115 -102 -353 -102 -389 0 -42 -19 -49 -22
-8 -2 35 -1 52 5 137 4 51 3 62 -4 40 -15 -50 -23 -190 -11 -210 9 -18 42 -30
42 -17 9 134 16 146 97 178 37 14 49 15 87 4 54 -15 138 -5 159 18 8 9 20 35
27 57 38 121 53 128 35 18 -12 -76 -6 -235 10 -275 5 -12 -6 -32 -33 -65 -37
-46 -106 -153 -98 -153 4 0 57 72 103 140 31 44 179 171 263 225 91 58 318
177 331 173 5 -2 -40 -30 -100 -63 -61 -32 -113 -65 -115 -72 -3 -7 -15 -13
-26 -13 -35 0 -303 -232 -354 -306 -75 -108 -106 -159 -106 -172 0 -8 -11 -27
-25 -44 -14 -16 -25 -38 -25 -48 0 -10 -11 -42 -25 -72 -31 -66 -33 -98 -5
-91 10 3 26 16 35 29 8 13 20 24 26 24 7 0 5 -10 -5 -24 -32 -50 -56 -131 -56
-193 l0 -63 42 -21 c38 -19 74 -47 66 -50 -4 -2 -38 -7 -78 -13 -19 -2 -37 -5
-40 -6 -3 -1 -8 -2 -12 -1 -11 1 -10 -13 3 -46 9 -24 8 -26 -4 -13 -41 43 -61
192 -45 340 5 50 5 58 -3 35 -6 -16 -11 -95 -12 -175 -2 -144 -2 -147 28 -205
27 -53 37 -63 90 -89 54 -27 70 -30 155 -30 81 0 105 4 165 28 94 38 123 53
168 88 28 23 35 25 30 11 -3 -10 -10 -23 -14 -29 -12 -15 -69 -202 -69 -225 0
-10 -14 -79 -30 -154 -32 -142 -63 -235 -83 -247 -7 -4 -13 -43 -15 -97 -4
-83 -2 -94 27 -155 18 -36 47 -81 66 -101 18 -20 41 -47 49 -60 18 -28 120
-99 173 -121 19 -8 33 -17 31 -19 -7 -7 -113 -7 -131 0 -26 11 -22 -22 5 -36
12 -6 30 -19 40 -28 10 -10 40 -23 68 -30 80 -20 69 -31 -24 -25 -79 6 -88 5
-130 -20 -25 -14 -48 -31 -52 -37 -4 -6 14 0 38 15 39 22 54 26 109 23 35 -2
75 -9 89 -15 25 -11 25 -11 -7 -11 -17 -1 -35 -6 -38 -12 -4 -5 -31 -21 -60
-34 -46 -20 -59 -22 -89 -13 -19 6 -43 7 -53 3 -15 -7 -13 -9 12 -15 30 -6 29
-6 -12 -14 -50 -9 -59 -28 -10 -21 32 5 31 5 -8 -13 -22 -11 -47 -28 -55 -38
-11 -15 -11 -16 0 -7 22 20 35 15 17 -5 -10 -10 -14 -21 -11 -25 9 -8 -23 -57
-37 -57 -7 0 -5 10 4 24 9 13 14 34 12 46 -2 12 2 35 10 51 17 32 18 39 8 39
-17 0 -53 -68 -53 -101 0 -19 -7 -43 -15 -53 -8 -11 -15 -30 -15 -42 0 -21 4
-23 38 -19 20 2 40 4 45 4 4 1 28 20 52 42 47 43 62 44 23 1 -22 -24 -22 -24
-2 -14 12 6 24 8 28 5 3 -3 14 1 23 9 35 31 130 78 246 122 l119 45 -7 -42
c-5 -36 -4 -39 6 -22 7 11 19 26 26 33 7 7 13 19 14 25 1 20 18 -26 18 -51 1
-13 -10 -40 -24 -60 -28 -41 -33 -61 -10 -42 9 8 15 9 15 2 0 -6 -5 -14 -10
-17 -6 -4 -8 -10 -5 -15 7 -11 -16 -50 -29 -50 -8 0 -5 18 10 54 5 13 4 17 -4
12 -7 -4 -9 5 -6 31 4 25 3 34 -4 25 -15 -22 -14 -133 3 -182 l15 -45 -4 42
c-4 41 15 86 30 71 4 -4 2 -13 -4 -20 -5 -7 -10 -30 -10 -50 0 -20 -3 -42 -8
-49 -4 -7 -3 -10 4 -5 6 3 16 -3 23 -15 10 -19 9 -21 -6 -15 -12 4 -16 2 -12
-8 13 -33 58 -96 76 -105 17 -10 19 -5 26 62 3 39 12 83 19 95 12 23 14 21 50
-52 42 -85 78 -120 113 -111 57 14 83 -40 52 -109 -22 -48 -24 -113 -5 -138 7
-10 33 -27 58 -38 30 -13 47 -28 51 -42 3 -13 17 -54 32 -93 18 -48 24 -80 20
-102 -3 -19 1 -47 10 -69 17 -41 20 -88 5 -79 -11 7 -2 -23 13 -43 7 -8 6 -21
-2 -38 -6 -14 -11 -33 -11 -43 0 -11 -6 -21 -12 -24 -7 -3 -24 -25 -37 -51
-18 -35 -22 -54 -17 -81 6 -31 10 -35 22 -24 8 6 17 9 21 6 9 -9 -25 -57 -42
-58 -8 -1 -19 -3 -25 -4 -5 -1 -14 -3 -19 -4 -14 -2 -61 -49 -61 -61 0 -6 10
1 23 15 12 14 39 30 60 35 l39 8 -21 -22 c-12 -12 -19 -25 -16 -28 3 -3 -1
-11 -10 -18 -9 -7 -15 -8 -15 -2 0 7 -10 6 -31 -1 -25 -10 -30 -16 -26 -36 3
-14 -4 -41 -14 -60 -10 -20 -19 -45 -19 -56 0 -11 -20 -41 -43 -67 l-43 -46
28 -4 c23 -4 25 -2 16 10 -10 11 -4 21 30 52 33 31 42 35 42 21 0 -26 8 -30
40 -21 35 10 44 -5 22 -38 -10 -15 -24 -22 -48 -22 -18 0 -36 -4 -39 -10 -3
-5 -1 -10 5 -10 7 0 10 -7 6 -15 -7 -19 3 -19 28 0 11 8 29 15 40 14 17 0 15
-3 -9 -14 -16 -8 -24 -14 -17 -15 17 0 72 31 72 41 0 4 -10 5 -22 2 -21 -5
-21 -4 -8 10 20 21 138 68 145 57 6 -10 45 -1 45 11 0 4 9 13 20 19 16 9 20 8
20 -5 0 -27 -47 -64 -89 -71 -23 -4 -41 -10 -41 -15 0 -5 -5 -8 -11 -7 -6 2
-13 -2 -16 -8 -5 -16 33 -24 47 -10 8 8 10 7 5 -5 -6 -15 -1 -16 42 -8 32 6
49 6 51 -1 3 -8 8 -7 17 0 10 8 19 8 34 0 14 -7 21 -7 21 0 0 5 19 10 43 10
31 0 38 -3 27 -10 -12 -8 -11 -9 5 -7 11 2 27 7 35 10 8 3 33 11 55 18 59 18
78 34 92 81 15 51 18 221 3 198 -6 -9 -10 -10 -10 -3 0 6 -11 25 -25 42 -19
22 -24 36 -19 55 8 35 21 33 29 -5 4 -17 9 -28 12 -25 3 2 -1 22 -8 43 -15 44
-13 70 8 120 11 27 17 33 23 23 5 -8 12 -11 16 -8 14 15 66 -72 89 -149 28
-92 111 -174 182 -180 19 -1 60 -7 91 -13 31 -6 102 -13 158 -17 129 -8 194
10 218 62 23 47 20 80 -9 112 -15 17 -23 21 -19 11 5 -14 1 -18 -17 -17 -13 1
-37 -3 -52 -10 -53 -21 -64 -13 -24 20 39 32 49 54 19 45 -10 -4 -27 1 -38 9
-10 8 -33 15 -51 15 -17 0 -38 7 -47 15 -8 8 -23 15 -33 15 -17 1 -17 1 0 11
13 8 24 7 42 -5 33 -21 56 -21 26 1 -14 9 -49 21 -78 27 -60 12 -72 28 -27 36
19 4 34 0 42 -10 8 -8 1 10 -15 40 -26 49 -29 64 -27 130 5 127 4 149 -5 173
-12 31 15 135 40 156 11 10 23 39 30 74 22 121 125 300 210 364 l50 38 -5 57
c-3 32 -1 60 4 63 6 3 7 -1 4 -9 -4 -11 0 -16 10 -16 9 0 16 4 16 8 0 5 11 14
24 20 l24 11 -28 91 c-16 50 -32 99 -36 108 -7 16 -6 133 1 141 2 2 11 -4 20
-12 9 -10 11 -18 5 -22 -5 -3 -10 -14 -9 -23 0 -11 3 -12 6 -4 7 18 20 15 26
-8 3 -11 0 -18 -6 -17 -6 1 -12 -7 -14 -18 -3 -16 -2 -17 6 -5 8 11 11 -3 12
-55 1 -69 15 -152 18 -110 1 17 7 14 32 -17 31 -38 49 -48 49 -28 0 6 -9 20
-19 32 -24 25 -44 78 -30 78 5 0 9 -6 9 -14 0 -8 7 -16 15 -20 8 -3 14 -9 13
-13 -2 -4 0 -9 5 -10 18 -7 27 -2 27 15 1 14 4 13 20 -7 11 -13 20 -18 20 -12
0 25 18 8 44 -44 15 -31 38 -68 50 -83 13 -15 31 -40 40 -57 15 -27 17 -28 11
-5 -3 14 -8 39 -11 55 -3 17 -15 54 -25 83 l-19 52 26 -6 26 -7 -7 52 c-4 33
-2 67 5 94 l13 42 57 -55 c40 -39 63 -70 74 -103 25 -75 55 -129 94 -170 37
-38 52 -46 52 -26 0 5 -4 8 -9 5 -11 -7 -20 39 -11 54 6 9 9 9 13 -1 10 -26 7
14 -7 78 -7 34 -11 65 -8 67 9 10 42 -15 42 -32 0 -14 2 -14 14 3 15 23 18 41
5 38 -4 -2 -6 3 -3 11 6 16 -21 66 -82 154 -47 67 -76 121 -89 162 -7 22 -6
23 8 12 10 -8 35 -12 69 -10 l53 4 -52 8 c-34 6 -53 13 -53 22 0 8 7 14 15 14
9 0 25 9 37 20 12 11 18 20 14 20 -5 0 8 18 28 40 42 46 44 59 15 84 -16 13
-30 16 -58 11 l-36 -6 45 26 c25 15 52 30 60 34 8 4 25 23 38 41 35 52 28 141
-21 275 -15 40 -23 53 -25 39 -2 -11 6 -43 16 -70 11 -27 25 -82 32 -122 11
-60 11 -77 0 -97 -9 -17 -17 -22 -25 -15 -7 5 -14 8 -16 6 -2 -3 -3 12 -1 32
2 20 -3 55 -11 77 -12 34 -18 40 -41 37 -14 -1 -26 1 -26 7 0 5 -11 12 -25 15
-31 8 -31 16 0 52 19 22 25 40 25 76 0 36 4 50 19 57 15 8 22 6 35 -12 17 -22
17 -22 13 10 -3 26 6 44 45 95 27 35 67 99 89 143 39 79 42 91 75 305 l6 34
28 -61 c55 -118 72 -189 77 -325 3 -71 9 -128 12 -128 25 0 44 36 67 125 21
81 27 123 27 220 0 104 -13 242 -29 298 -8 26 16 20 63 -16 23 -17 95 -73 160
-123 111 -85 239 -179 273 -199 13 -8 13 -7 1 8 -27 33 2 16 56 -33 94 -86 93
-86 93 24 l0 96 -51 40 c-28 22 -57 40 -65 40 -9 0 -13 4 -10 9 3 5 -18 29
-48 54 -29 25 -69 61 -88 79 -19 18 -46 41 -60 50 -14 9 -28 26 -31 38 l-5 21
31 -20 c35 -22 114 -89 161 -137 17 -17 61 -52 99 -77 52 -36 67 -43 67 -29 0
17 -99 102 -118 102 -5 0 -36 24 -69 53 -33 30 -93 79 -134 109 -41 31 -120
95 -177 142 -62 53 -107 84 -115 80 -6 -4 -9 -3 -4 1 4 5 -10 26 -30 48 -25
26 -34 41 -25 44 32 12 129 84 140 105 20 37 54 48 93 30 22 -9 69 -15 129
-16 91 -1 98 1 172 37 93 46 138 93 138 143 0 26 -4 35 -13 31 -10 -4 -13 2
-9 19 3 19 1 23 -11 18 -8 -3 -29 2 -46 11 -34 17 -56 12 -47 -11 3 -8 1 -14
-4 -14 -6 0 -10 8 -10 17 0 9 -8 25 -17 36 -18 19 -17 20 7 8 20 -10 19 -7 -9
18 -23 21 -35 41 -36 64 -6 69 -30 105 -91 134 -40 19 -67 41 -88 71 -38 53
-26 74 25 43 41 -25 49 -26 49 -6 0 35 -37 69 -108 102 -69 31 -74 36 -100 90
-26 57 -28 63 -31 83 -1 13 -61 80 -71 80 -5 0 -6 -9 -3 -20 9 -34 -16 -23
-78 37 -33 31 -70 57 -82 59 -42 4 -121 73 -162 140 -22 35 -45 66 -52 68 -8
4 -6 -4 5 -22 19 -28 72 -114 102 -168 10 -17 21 -50 25 -75 3 -24 13 -64 20
-89 24 -80 28 -159 10 -230 -20 -79 -56 -170 -67 -170 -4 0 -8 -8 -8 -17 0
-10 -7 -27 -15 -37 -8 -11 -15 -32 -15 -47 0 -16 -11 -40 -25 -55 -13 -14 -22
-31 -18 -37 4 -6 1 -7 -6 -3 -7 5 -10 14 -7 22 3 8 0 11 -8 8 -9 -3 -12 4 -11
25 1 17 -2 28 -7 25 -4 -3 -8 13 -8 36 0 22 -6 56 -14 75 -8 19 -11 37 -6 40
11 7 1 35 -12 35 -6 0 -8 -7 -4 -15 3 -8 0 -15 -6 -15 -19 0 1 118 37 224 19
54 32 102 30 106 -2 3 2 42 10 86 23 134 8 210 -54 279 -15 17 -33 49 -40 72
-6 23 -17 45 -23 49 -7 5 -9 2 -5 -8 5 -15 -9 -38 -25 -38 -12 0 -10 84 3 97
8 8 8 17 0 31 -14 26 -14 45 -1 37 13 -8 13 -2 -4 37 -17 41 -37 106 -82 268
-21 78 -32 106 -28 75 3 -27 10 -58 15 -67 5 -9 9 -23 9 -30 0 -7 -16 16 -35
51 -26 48 -36 80 -38 123 -3 42 0 55 8 48 8 -6 11 11 11 64 0 55 -3 73 -12 69
-7 -2 -18 5 -24 18 -8 14 -15 18 -19 11 -4 -7 -19 15 -35 49 -17 37 -37 64
-52 71 -16 8 -24 19 -24 36 0 22 3 24 30 19 33 -7 37 -2 17 22 -11 13 -11 21
-1 40 11 22 12 21 19 -20 6 -40 59 -149 72 -149 3 0 -7 20 -22 46 -14 25 -28
63 -30 85 -3 34 0 42 23 56 76 48 152 126 183 188 29 59 31 71 27 139 -6 86
-34 144 -97 198 -49 41 -132 89 -112 65 21 -26 1 -20 -63 19 -45 27 -61 32
-67 22 -9 -15 -5 -19 -58 60 -24 35 -56 75 -72 90 -17 14 -46 52 -65 84 -34
55 -45 63 -87 59 -9 -1 -32 8 -50 20 -17 12 -33 23 -34 24 -1 0 -7 34 -14 75
-6 41 -22 102 -35 135 -13 33 -17 52 -10 42 9 -11 15 -14 18 -7 2 7 33 -32 68
-86 63 -96 132 -177 157 -185 7 -2 30 -27 50 -55 73 -99 161 -210 177 -223 10
-8 -16 34 -56 94 -44 66 -109 144 -165 200 -51 50 -121 132 -155 183 -35 50
-89 128 -121 172 -31 44 -75 120 -97 169 -21 49 -54 111 -73 138 -53 74 -94
152 -116 223 -27 84 -54 128 -89 141 -34 14 -249 26 -322 18z m95 -25 c-11 -8
-36 -14 -56 -12 -21 1 -44 -4 -53 -11 -8 -7 -32 -11 -53 -10 -21 1 -47 0 -58
-3 -11 -4 -38 -9 -60 -12 -33 -5 -37 -4 -21 5 41 25 183 58 251 58 64 0 68 -1
50 -15z m-220 -134 c-3 -5 -11 -10 -16 -10 -6 0 -7 5 -4 10 3 6 11 10 16 10 6
0 7 -4 4 -10z m650 -252 c43 -51 27 -53 -27 -3 -29 27 -57 51 -61 55 -4 4 -12
34 -17 66 -5 32 -12 70 -15 84 -4 14 17 -19 45 -74 28 -54 62 -112 75 -128z
m-425 103 c3 -3 27 -17 55 -31 42 -21 51 -30 56 -60 3 -19 10 -44 16 -55 6
-11 9 -25 6 -31 -2 -6 6 -19 17 -29 11 -10 20 -24 20 -31 0 -7 6 -15 13 -17 6
-3 -1 -6 -17 -6 -19 -1 -27 3 -23 12 3 7 -3 13 -12 13 -13 0 -16 -7 -14 -26
l4 -25 -17 23 c-16 22 -54 31 -54 13 0 -15 30 -41 46 -41 25 0 29 -1 47 -18
13 -11 17 -26 14 -47 -2 -16 0 -41 5 -54 12 -32 27 -101 22 -101 -2 0 -11 18
-20 40 -9 22 -25 45 -35 51 -11 5 -19 16 -19 24 0 8 -9 15 -19 15 -11 0 -41
11 -68 24 -26 14 -49 23 -51 21 -2 -1 13 -20 32 -41 36 -39 49 -68 21 -44 -11
9 -15 9 -15 1 0 -7 -4 -9 -10 -6 -6 3 -7 -1 -4 -9 6 -16 -11 -23 -18 -8 -1 4
-22 22 -45 40 -27 21 -43 28 -45 20 -4 -10 -9 -10 -29 0 -13 7 -16 10 -7 8 12
-3 15 -1 11 9 -3 8 -9 12 -14 9 -5 -3 -9 2 -9 10 0 9 -4 16 -8 16 -17 0 -21
-12 -12 -36 12 -31 7 -31 -92 10 -46 18 -100 39 -120 46 -41 12 -60 31 -31 28
34 -3 54 2 49 11 -11 18 6 41 30 41 25 0 33 15 12 23 -7 2 -26 0 -41 -4 -42
-12 -77 8 -47 26 6 4 8 10 5 15 -3 4 12 11 33 15 20 4 63 18 94 31 32 13 74
24 95 25 21 0 61 7 88 13 40 10 46 14 30 20 -11 4 -33 13 -48 18 -18 7 -24 14
-17 18 9 6 9 10 -1 16 -10 6 4 12 41 19 52 11 89 9 100 -4z m-525 -71 c-3 -5
-12 -10 -18 -10 -7 0 -6 4 3 10 19 12 23 12 15 0z m45 -29 c0 -5 -7 -12 -16
-15 -14 -5 -15 -4 -4 9 14 17 20 19 20 6z m-96 -27 c3 -8 2 -12 -4 -9 -6 3
-10 10 -10 16 0 14 7 11 14 -7z m-13 -55 c-5 -13 -10 -19 -10 -12 -1 15 10 45
15 40 3 -2 0 -15 -5 -28z m922 -132 c8 -55 8 -107 -1 -107 -14 0 -96 89 -88
97 4 4 11 1 15 -6 6 -8 11 -9 15 -3 3 6 2 13 -3 17 -6 3 -7 13 -4 22 5 12 3
14 -8 8 -12 -8 -12 -6 -1 8 8 9 11 21 7 27 -3 5 9 1 28 -10 25 -15 36 -30 40
-53z m-1096 47 c-3 -3 -12 -4 -19 -1 -8 3 -5 6 6 6 11 1 17 -2 13 -5z m368
-68 c77 -33 58 -33 -31 -1 -38 14 -70 25 -71 25 -2 0 -3 4 -3 10 0 10 4 9 105
-34z m-117 29 c-3 -3 0 -25 7 -48 9 -30 17 -41 29 -39 14 3 15 0 5 -17 -12
-19 -13 -19 -32 5 -29 37 -49 45 -90 32 -39 -12 -50 -41 -25 -66 15 -15 58
-16 58 -1 0 5 5 7 11 3 17 -10 -5 -26 -35 -26 -36 0 -56 19 -56 55 0 35 23 56
63 57 19 0 26 4 21 12 -5 8 -2 9 10 5 13 -5 17 -3 13 7 -6 15 1 26 16 26 6 0
8 -2 5 -5z m242 -108 c0 -7 16 -19 36 -26 19 -7 69 -45 110 -84 41 -40 89 -77
107 -84 23 -9 27 -12 12 -13 l-20 -1 20 -10 c16 -7 14 -8 -10 -3 -16 3 -31 10
-33 15 -2 5 -8 9 -13 9 -15 0 21 -61 54 -91 17 -15 35 -25 40 -22 6 3 7 1 3
-6 -4 -6 -16 -9 -27 -6 -26 8 -24 -4 6 -45 26 -35 26 -58 0 -24 -26 32 -54 91
-48 98 4 3 1 6 -5 6 -11 0 -35 60 -38 93 -1 10 -9 26 -17 35 -15 14 -16 13
-12 -11 3 -15 9 -37 15 -51 7 -19 5 -28 -7 -38 -12 -10 -17 -10 -20 -1 -2 7
-11 9 -19 6 -8 -3 -14 0 -14 6 0 6 7 11 15 11 16 0 17 2 19 51 1 40 -60 123
-94 127 -18 3 -22 1 -14 -7 19 -20 4 -71 -22 -77 -28 -7 -54 1 -54 16 0 7 6 8
19 0 52 -27 72 42 24 80 -20 16 -36 20 -58 16 l-30 -5 28 15 c15 8 27 19 27
24 0 6 5 10 10 10 6 0 10 -6 10 -13z m115 -23 c61 -31 111 -64 80 -53 -31 12
-165 80 -165 84 0 10 18 4 85 -31z m-195 -18 c0 -2 -9 -6 -20 -9 -11 -3 -18
-1 -14 4 5 9 34 13 34 5z m-255 -55 c194 -67 218 -76 320 -128 105 -52 224
-130 278 -181 61 -59 42 -59 -25 0 -80 70 -122 96 -288 179 -113 57 -284 121
-440 167 -29 8 -31 10 -10 11 14 0 88 -21 165 -48z m205 41 c0 -5 -16 -16 -35
-25 -44 -21 -46 -13 -2 13 37 23 37 23 37 12z m97 -40 c-10 -10 -14 -22 -10
-27 5 -4 3 -5 -4 -2 -16 10 -4 47 15 47 13 0 13 -2 -1 -18z m-182 -10 c-3 -3
-11 0 -18 7 -9 10 -8 11 6 5 10 -3 15 -9 12 -12z m-2805 -99 c16 -6 -36 -23
-78 -26 -13 -1 -20 -7 -17 -14 2 -7 -2 -13 -10 -13 -29 0 -23 18 13 42 34 22
54 25 92 11z m2783 -18 c-3 -9 -8 -14 -10 -11 -3 3 -2 9 2 15 9 16 15 13 8 -4z
m65 -15 c-7 -11 -14 -17 -17 -15 -2 3 1 11 7 18 7 8 8 18 4 22 -4 5 -1 5 5 1
10 -5 10 -11 1 -26z m-100 -80 c0 -23 -1 -22 -14 9 -8 18 -12 41 -8 50 5 13 8
11 14 -9 5 -14 8 -36 8 -50z m37 53 c-3 -8 -5 -21 -5 -29 0 -8 -4 -14 -10 -14
-5 0 -8 13 -7 28 1 16 8 29 15 29 7 0 10 -7 7 -14z m716 0 c13 -16 12 -17 -3
-4 -10 7 -18 15 -18 17 0 8 8 3 21 -13z m-496 -11 c-3 -3 -11 0 -18 7 -9 10
-8 11 6 5 10 -3 15 -9 12 -12z m-3138 -19 c6 -18 -72 -36 -98 -23 -20 11 -20
12 -2 26 21 16 95 14 100 -3z m3613 -8 c7 -9 8 -15 2 -15 -5 0 -12 7 -16 15
-3 8 -4 15 -2 15 2 0 9 -7 16 -15z m-394 -38 l-6 -29 48 7 c38 5 45 4 35 -6
-22 -22 -14 -32 20 -25 26 5 29 3 17 -7 -19 -16 -23 -50 -5 -43 8 3 17 -3 20
-14 7 -22 37 -34 63 -26 23 8 56 -22 82 -74 11 -21 24 -41 30 -45 18 -11 11
-43 -22 -92 -64 -96 -170 -184 -235 -198 -28 -5 -38 0 -100 53 -106 92 -128
121 -166 212 -49 117 -69 191 -62 231 8 47 18 53 59 39 42 -14 60 -34 22 -24
-21 5 -25 3 -21 -9 4 -8 0 -17 -8 -20 -10 -4 -13 -14 -10 -31 5 -27 26 -49 22
-25 -4 33 1 41 16 25 8 -8 15 -21 15 -29 0 -18 50 -17 73 1 13 11 19 10 36 -7
39 -39 16 11 -32 71 -17 21 -28 40 -26 42 2 2 31 11 64 21 33 10 54 20 47 22
-6 3 -10 9 -7 13 3 5 13 6 21 3 12 -4 14 -14 10 -36z m-200 6 c-2 -2 -11 0
-20 3 -14 5 -15 9 -5 15 12 7 34 -10 25 -18z m-3116 -3 c0 -5 -4 -10 -9 -10
-6 0 -13 5 -16 10 -3 6 1 10 9 10 9 0 16 -4 16 -10z m-20 -20 c0 -6 -14 -19
-31 -28 -17 -9 -47 -27 -66 -40 -20 -13 -37 -21 -39 -19 -8 8 8 37 21 37 7 0
15 4 17 9 4 12 70 51 86 51 6 0 12 -5 12 -10z m424 -11 c-8 -14 -34 -10 -34 5
0 9 7 12 20 9 11 -3 17 -9 14 -14z m766 7 c0 -15 -14 -35 -21 -30 -15 9 -10
34 6 34 8 0 15 -2 15 -4z m2733 -123 c21 -29 81 -89 133 -134 52 -44 94 -84
94 -89 0 -4 6 -7 13 -6 6 0 13 -3 14 -7 4 -16 139 -76 208 -92 39 -10 96 -24
128 -33 31 -8 60 -12 63 -9 9 8 3 10 -156 56 -74 22 -151 45 -171 53 -40 15
-105 67 -101 80 1 5 -2 7 -7 4 -5 -3 -28 12 -52 34 l-44 40 22 19 22 18 -25
12 c-33 15 -37 14 -30 -4 3 -8 1 -15 -4 -15 -6 0 -10 6 -10 14 0 8 -2 20 -3
28 -2 7 -2 10 0 6 3 -5 12 -8 21 -8 10 0 26 -7 36 -15 11 -8 30 -15 44 -15 13
0 21 -3 19 -7 -3 -5 6 -9 19 -9 15 -1 21 2 17 9 -4 7 0 8 13 3 44 -18 54 -19
48 -2 -11 28 25 30 95 7 77 -27 171 -72 171 -83 0 -4 -9 -8 -19 -8 -11 0 -23
-4 -26 -10 -3 -6 1 -7 9 -4 9 3 16 2 16 -3 0 -5 8 -9 18 -10 46 -3 82 -13 112
-31 l32 -20 -42 -7 c-37 -6 -45 -4 -71 21 -22 21 -29 24 -29 11 0 -9 8 -20 17
-26 16 -8 14 -10 -10 -16 -18 -5 -36 -2 -53 10 -32 21 -60 13 -45 -12 6 -10
19 -28 29 -39 20 -24 21 -24 251 5 101 13 124 5 156 -53 19 -34 20 -43 9 -65
-25 -52 -37 -86 -35 -101 1 -11 -1 -10 -9 3 -6 9 -8 22 -4 29 5 7 3 8 -5 4 -7
-5 -20 -1 -29 7 -19 17 -102 60 -102 53 0 -3 27 -25 59 -51 62 -47 78 -73 63
-101 -8 -14 -10 -14 -15 5 -3 12 -1 19 4 15 5 -3 9 0 9 5 0 6 -7 11 -16 11 -8
0 -13 4 -9 9 9 16 -36 50 -80 62 -22 6 -56 19 -75 30 -45 24 -109 47 -185 65
-116 29 -192 55 -232 82 -57 38 -213 189 -286 279 -85 103 -107 136 -61 88 22
-22 57 -63 77 -92z m-1598 98 c19 -8 19 -8 -3 -15 -12 -4 -20 -10 -18 -14 2
-4 -9 -7 -25 -8 -18 -1 -28 3 -26 10 2 6 14 10 25 8 12 -2 22 2 22 8 0 6 -5 8
-12 4 -7 -4 -8 -3 -4 4 8 14 13 14 41 3z m-1155 -32 c0 -5 -4 -9 -10 -9 -5 0
-10 7 -10 16 0 8 5 12 10 9 6 -3 10 -10 10 -16z m2540 -3 c0 -3 -4 -8 -10 -11
-5 -3 -10 -1 -10 4 0 6 5 11 10 11 6 0 10 -2 10 -4z m159 -41 c11 -14 23 -40
27 -57 5 -26 2 -35 -16 -50 -27 -22 -47 -23 -47 -3 0 12 3 12 16 3 9 -7 13 -9
9 -4 -4 5 -1 18 7 30 22 31 18 51 -16 80 -19 16 -25 26 -15 26 8 0 24 -11 35
-25z m-854 -65 c2 -11 7 -26 10 -33 4 -6 -3 -2 -14 11 -11 13 -17 30 -14 39 4
11 2 14 -5 9 -7 -4 -12 -3 -12 3 0 5 -3 18 -7 28 -4 11 2 7 16 -9 12 -15 24
-37 26 -48z m-118 18 c-3 -8 -6 -5 -6 6 -1 11 2 17 5 13 3 -3 4 -12 1 -19z
m-2276 -46 c-27 -5 -96 24 -99 41 -3 14 7 12 56 -11 32 -15 52 -28 43 -30z
m3154 8 c12 -19 -12 -10 -31 11 -19 22 -19 22 3 10 12 -6 25 -16 28 -21z
m-3597 3 c-2 -9 -8 -18 -15 -20 -7 -3 -9 3 -6 16 6 25 26 28 21 4z m3639 -19
c-3 -3 -12 -4 -19 -1 -8 3 -5 6 6 6 11 1 17 -2 13 -5z m-3657 -80 c0 -8 -4
-12 -10 -9 -5 3 -10 10 -10 16 0 5 5 9 10 9 6 0 10 -7 10 -16z m3848 -1 c-10
-2 -28 -2 -40 0 -13 2 -5 4 17 4 22 1 32 -1 23 -4z m-218 -56 c0 -12 -50 35
-50 47 0 5 11 -1 25 -14 14 -13 25 -28 25 -33z m270 34 c16 -31 8 -70 -20 -94
-25 -22 -25 -22 -6 0 15 18 16 28 8 67 -10 47 -1 61 18 27z m-1116 -50 c-23
-10 -44 -26 -47 -35 -8 -20 -27 -21 -27 -2 0 17 39 48 51 40 4 -2 10 0 14 6 3
5 16 10 28 10 16 0 11 -6 -19 -19z m984 -6 c-3 -3 -9 2 -12 12 -6 14 -5 15 5
6 7 -7 10 -15 7 -18z m112 11 c0 -3 -4 -8 -10 -11 -5 -3 -10 -1 -10 4 0 6 5
11 10 11 6 0 10 -2 10 -4z m-200 -41 c19 -19 32 -35 29 -35 -3 0 -20 16 -39
35 -19 19 -32 35 -29 35 3 0 20 -16 39 -35z m-234 -3 c-17 -16 -18 -16 -5 5 7
12 15 20 18 17 3 -2 -3 -12 -13 -22z m-3455 3 c-1 -15 -24 -12 -29 3 -3 9 2
13 12 10 10 -1 17 -7 17 -13z m2193 -37 c-11 -49 -6 -80 16 -102 16 -16 22
-17 34 -6 9 7 16 18 16 24 0 6 7 22 16 34 15 22 16 22 46 5 32 -19 108 -97
108 -111 0 -5 -15 -26 -33 -48 -82 -97 -105 -155 -83 -208 12 -30 11 -32 -27
-59 -39 -29 -65 -74 -74 -134 l-6 -34 -20 33 c-17 28 -19 43 -13 118 5 69 3
89 -9 108 -9 12 -23 22 -31 22 -8 0 -14 5 -14 11 0 6 -10 24 -21 41 l-21 29
23 25 c22 23 22 27 10 72 -6 25 -16 49 -22 52 -5 4 11 25 36 49 25 23 48 54
51 69 8 31 13 42 20 42 3 0 2 -15 -2 -32z m1786 25 c-8 -3 -23 -12 -32 -21
-10 -8 -18 -11 -18 -6 0 17 23 34 45 33 14 0 16 -2 5 -6z m-1745 -40 c-23 -23
-18 -27 11 -8 15 9 24 13 22 8 -2 -4 -10 -23 -17 -41 -11 -26 -16 -30 -27 -21
-16 13 -19 55 -4 64 6 4 8 11 5 16 -3 5 1 6 9 3 14 -5 14 -8 1 -21z m695 -45
c0 -3 -11 -20 -25 -36 -13 -16 -22 -32 -20 -36 3 -3 0 -2 -6 3 -7 6 -6 18 5
39 9 17 16 44 16 59 l1 28 14 -25 c8 -14 14 -28 15 -32z m477 39 c0 -8 -6 -14
-14 -14 -9 0 -10 4 -2 14 6 7 12 13 14 13 1 0 2 -6 2 -13z m354 -4 c13 -16 12
-17 -3 -4 -10 7 -18 15 -18 17 0 8 8 3 21 -13z m-132 -6 c6 -8 8 -17 5 -20
-10 -9 -45 13 -39 24 9 13 21 11 34 -4z m441 -37 c6 0 10 5 10 10 0 6 -5 10
-12 10 -6 0 -9 2 -6 5 2 3 19 -2 37 -11 22 -11 43 -14 72 -9 41 7 99 -9 99
-27 0 -6 -7 -8 -15 -4 -18 7 -45 -30 -45 -62 0 -33 18 -62 34 -56 7 3 19 -3
27 -13 13 -16 12 -17 -3 -5 -9 8 -21 11 -27 8 -13 -8 -51 42 -51 66 0 11 5 29
11 41 8 18 6 17 -14 -5 -25 -27 -25 -27 -32 -5 -4 12 -7 27 -6 34 1 8 -18 2
-49 -14 -43 -22 -56 -25 -91 -17 -27 6 -47 18 -57 34 -16 24 -16 25 3 9 32
-27 80 -33 112 -14 l28 16 -28 -4 c-15 -2 -26 -2 -23 1 3 2 -1 11 -9 19 -8 8
-15 19 -15 24 0 5 9 0 20 -11 11 -11 25 -20 30 -20z m-671 -63 c-60 -70 -115
-127 -124 -127 -3 0 -5 7 -5 15 0 8 4 15 8 15 8 0 77 127 77 142 0 3 4 10 9
15 5 5 6 3 2 -4 -11 -20 6 -14 39 12 25 21 31 22 38 9 6 -11 -5 -32 -44 -77z
m-3399 59 c0 -8 -4 -17 -8 -20 -13 -8 -35 11 -28 23 10 16 36 14 36 -3z m3690
-15 c0 -6 -4 -13 -10 -16 -5 -3 -10 1 -10 9 0 9 5 16 10 16 6 0 10 -4 10 -9z
m-960 -11 c0 -5 -2 -10 -4 -10 -3 0 -8 5 -11 10 -3 6 -1 10 4 10 6 0 11 -4 11
-10z m990 1 c0 -6 -4 -13 -10 -16 -5 -3 -10 1 -10 9 0 9 5 16 10 16 6 0 10 -4
10 -9z m271 -55 c52 -25 119 -52 149 -61 61 -19 136 -48 105 -41 -103 22 -218
62 -280 96 -65 36 -85 50 -71 50 2 0 46 -20 97 -44z m409 24 c11 -11 20 -26
20 -32 0 -7 -9 -2 -18 10 -24 31 -66 27 -70 -5 -7 -50 83 -95 157 -78 31 7 48
35 35 57 -4 7 1 5 12 -4 17 -17 17 -18 -5 -42 -35 -38 -98 -44 -154 -16 -62
31 -82 77 -50 112 21 24 48 23 73 -2z m-1140 -34 c0 -20 -4 -23 -22 -18 -12 3
-17 7 -10 10 6 2 12 10 12 18 0 8 5 14 10 14 6 0 10 -11 10 -24z m-430 -8 c0
-16 -3 -19 -11 -11 -6 6 -8 16 -5 22 11 17 16 13 16 -11z m30 12 c0 -5 -4 -10
-10 -10 -5 0 -10 5 -10 10 0 6 5 10 10 10 6 0 10 -4 10 -10z m-761 -22 c5 -13
5 -27 0 -32 -11 -12 -15 -8 -23 27 -8 33 11 37 23 5z m701 6 c0 -8 -5 -12 -10
-9 -6 4 -8 11 -5 16 9 14 15 11 15 -7z m920 2 c0 -3 -4 -8 -10 -11 -5 -3 -10
-1 -10 4 0 6 5 11 10 11 6 0 10 -2 10 -4z m-1269 -32 c19 -51 -32 -135 -73
-122 -7 3 -18 -2 -25 -11 -6 -9 -14 -13 -18 -9 -8 8 26 75 59 113 14 17 26 36
26 43 0 22 20 13 31 -14z m-2461 -4 c13 -8 13 -10 -2 -10 -9 0 -20 5 -23 10
-8 13 5 13 25 0z m2009 -21 c-41 -40 -90 -60 -138 -57 -50 4 -44 14 14 22 52
8 70 24 22 20 -18 -2 -23 -1 -12 2 11 3 45 14 75 25 74 25 76 24 39 -12z
m1721 21 c0 -5 -4 -10 -10 -10 -5 0 -10 5 -10 10 0 6 5 10 10 10 6 0 10 -4 10
-10z m-1955 -43 c1 -14 4 -29 8 -33 12 -12 8 -24 -7 -18 -16 6 -27 86 -11 81
5 -2 10 -16 10 -30z m299 11 c-17 -54 -142 -140 -165 -112 -8 10 -5 11 10 7
13 -3 21 -1 21 7 0 7 11 21 25 32 14 11 22 24 19 30 -5 7 -2 8 5 4 7 -5 21 0
32 10 10 9 19 13 19 8 0 -5 7 2 16 14 19 28 27 28 18 0z m-2082 -29 c-1 -14 1
-19 6 -12 5 8 13 9 22 3 8 -6 13 -10 10 -11 -50 -10 -67 -8 -67 8 -2 29 6 45
20 40 6 -2 11 -15 9 -28z m2838 19 c0 -16 -19 -47 -21 -33 0 6 -2 18 -4 28 -2
9 3 17 11 17 8 0 14 -6 14 -12z m1767 -12 c15 -13 26 -26 23 -29 -3 -3 -21 8
-40 24 -19 16 -29 29 -23 29 7 0 25 -11 40 -24z m-2792 5 c3 -5 1 -12 -5 -16
-5 -3 -10 1 -10 9 0 18 6 21 15 7z m256 -73 c-34 -26 -50 -22 -21 6 14 13 29
21 34 18 5 -3 -1 -13 -13 -24z m1561 -33 c-2 -36 -8 -65 -13 -65 -10 0 -12 73
-3 108 12 42 19 22 16 -43z m231 -8 c-3 -31 -10 -57 -14 -57 -5 0 -6 21 -2 48
3 26 6 55 7 64 0 10 4 14 8 10 4 -4 4 -33 1 -65z m-118 53 c8 -13 -20 -24 -41
-16 -20 8 -9 26 16 26 10 0 22 -5 25 -10z m-1635 -45 c-7 -8 -18 -15 -26 -15
-7 0 -16 -5 -20 -12 -4 -7 -3 -8 4 -4 7 4 12 2 12 -3 0 -6 -5 -11 -11 -11 -6
0 -17 -7 -25 -15 -9 -9 -34 -15 -61 -15 -37 0 -44 3 -39 16 4 9 2 13 -5 8 -7
-4 -10 -1 -7 7 3 8 10 13 17 12 6 -2 34 6 63 18 29 11 55 20 58 20 14 -2 40
12 41 22 0 8 2 8 6 -1 3 -7 -1 -19 -7 -27z m855 25 c3 -5 -1 -10 -10 -10 -9 0
-13 5 -10 10 3 6 8 10 10 10 2 0 7 -4 10 -10z m-1107 -28 c2 -7 -2 -10 -12 -6
-9 3 -16 11 -16 16 0 13 23 5 28 -10z m42 8 c0 -5 -4 -10 -10 -10 -5 0 -10 5
-10 10 0 6 5 10 10 10 6 0 10 -4 10 -10z m975 0 c3 -5 -2 -10 -12 -10 -16 0
-19 -8 -19 -45 -1 -39 2 -45 20 -45 17 -1 18 -2 6 -9 -20 -12 -77 -2 -58 10
11 8 11 10 0 18 -11 6 -10 10 5 16 16 6 15 8 -7 18 -21 8 -22 11 -7 14 12 3
16 10 12 24 -5 16 -1 19 24 19 16 0 33 -4 36 -10z m863 -8 c3 -9 -2 -13 -14
-10 -9 1 -19 9 -22 16 -3 9 2 13 14 10 9 -1 19 -9 22 -16z m810 -18 c-4 -3
-12 5 -18 18 -12 22 -12 22 6 6 10 -10 15 -20 12 -24z m-1200 4 c2 -10 -2 -18
-8 -18 -6 0 -8 5 -5 10 3 6 1 10 -4 10 -6 0 -11 -4 -11 -9 0 -5 -7 -11 -14
-14 -10 -4 -13 -1 -9 9 3 8 -1 14 -10 14 -9 0 -19 5 -22 11 -5 7 8 9 36 7 32
-2 45 -8 47 -20z m-1857 -5 c13 -15 12 -15 -8 -4 -24 12 -29 21 -14 21 5 0 15
-7 22 -17z m1244 7 c3 -5 -1 -10 -9 -10 -9 0 -16 5 -16 10 0 6 4 10 9 10 6 0
13 -4 16 -10z m235 0 c0 -5 -4 -10 -10 -10 -5 0 -10 5 -10 10 0 6 5 10 10 10
6 0 10 -4 10 -10z m-1100 -22 c0 -5 -4 -6 -10 -3 -5 3 -10 1 -10 -4 0 -6 8
-11 18 -11 15 -1 15 -2 -2 -11 -20 -12 -36 2 -36 33 0 11 6 15 20 11 11 -3 20
-10 20 -15z m310 -9 c12 -29 12 -33 -10 -49 -13 -10 -34 -17 -47 -17 l-24 0
22 23 c15 16 25 20 30 13 5 -8 8 -8 13 0 4 6 2 11 -3 11 -6 0 -11 11 -11 25 0
34 15 31 30 -6z m1560 11 c13 -8 12 -10 -4 -10 -15 0 -16 -3 -6 -15 15 -18 9
-28 -12 -20 -10 4 -13 15 -10 31 5 26 10 29 32 14z m-1623 -34 c-4 -9 -35 -34
-69 -56 -47 -30 -69 -39 -88 -34 -48 11 -41 28 18 44 57 16 122 55 122 74 0 6
4 6 11 -1 7 -7 9 -19 6 -27z m618 25 c3 -5 1 -12 -5 -16 -5 -3 -10 1 -10 9 0
18 6 21 15 7z m240 -1 c-3 -5 -14 -10 -23 -10 -15 0 -15 2 -2 10 20 13 33 13
25 0z m-1068 -22 c-3 -8 -6 -5 -6 6 -1 11 2 17 5 13 3 -3 4 -12 1 -19z m1061
-10 c-2 -6 -13 -12 -24 -14 -19 -3 -19 -3 0 12 24 17 29 18 24 2z m-538 -7 c0
-5 -13 -14 -29 -21 -16 -6 -35 -25 -42 -41 -6 -17 -21 -36 -33 -44 -20 -15
-20 -15 4 -15 l25 0 -25 -24 c-14 -13 -29 -21 -34 -18 -4 2 -12 -2 -17 -9 -4
-7 -11 -10 -16 -6 -4 4 -2 17 5 27 8 13 8 20 2 20 -16 0 0 52 23 77 11 13 43
32 71 42 59 23 66 24 66 12z m310 -1 c0 -5 -2 -10 -4 -10 -3 0 -8 5 -11 10 -3
6 -1 10 4 10 6 0 11 -4 11 -10z m916 -229 c8 -51 13 -95 11 -98 -12 -11 -40
135 -43 222 -3 98 -3 99 7 35 5 -36 16 -107 25 -159z m185 69 l-8 -135 -2 96
c-1 90 9 206 15 184 2 -6 0 -71 -5 -145z m-1087 53 c10 -106 35 -220 58 -268
14 -29 16 -36 5 -25 -27 26 -57 119 -72 219 -17 110 -19 151 -6 151 4 0 11
-35 15 -77z m1009 71 c35 -6 37 -8 22 -24 -11 -12 -13 -20 -6 -25 6 -3 14 1
17 9 3 9 10 16 15 16 6 0 6 -7 1 -17 -5 -11 -5 -58 0 -112 9 -98 -2 -154 -28
-144 -7 2 -15 0 -19 -6 -9 -16 -25 -13 -25 4 0 8 -4 15 -8 15 -16 0 -44 99
-49 177 -8 117 -6 121 80 107z m-1677 -19 c-7 -19 1 -19 21 0 8 9 18 13 22 10
3 -4 -8 -19 -26 -35 -17 -16 -30 -30 -27 -32 2 -3 -2 -5 -8 -6 -45 -6 -58 -10
-72 -21 -9 -7 -24 -10 -36 -6 -20 6 -20 20 0 20 5 0 15 8 22 18 13 18 85 64
102 66 4 1 6 -6 2 -14z m864 -82 c0 -67 -3 -93 -10 -83 -18 27 -12 180 7 180
2 0 3 -44 3 -97z m-1130 55 c0 -12 -6 -9 -26 13 -19 22 -19 22 4 8 12 -8 22
-17 22 -21z m87 2 c6 -17 7 -28 2 -24 -13 8 -11 -10 3 -24 9 -9 8 -12 -5 -12
-22 0 -39 34 -31 65 8 33 17 32 31 -5z m1693 -35 c0 -30 -4 -55 -10 -55 -5 0
-10 6 -10 13 0 6 -9 23 -19 36 -18 24 -18 25 3 42 32 28 36 24 36 -36z m-741
-30 c8 -43 18 -72 23 -69 6 4 7 19 4 35 -6 30 7 48 21 27 12 -20 31 -98 21
-92 -4 3 -8 -6 -8 -20 0 -25 14 -43 23 -29 2 5 2 2 0 -6 -2 -7 2 -21 9 -30 8
-9 3 -8 -11 4 -13 11 -32 38 -42 60 l-18 40 2 -38 c1 -20 5 -37 10 -37 4 0 7
-9 7 -20 0 -10 8 -24 18 -29 12 -7 13 -10 3 -11 -11 0 -9 -5 5 -21 19 -22 19
-22 -2 -11 -11 6 -29 27 -39 46 -20 37 -50 51 -38 19 7 -17 6 -17 -11 -1 -9
10 -14 23 -10 29 4 7 3 9 -3 6 -12 -7 -24 15 -28 48 -2 11 -6 46 -10 78 -7 48
-5 61 10 77 35 39 50 26 64 -55z m-728 22 c-8 -8 -11 -7 -11 4 0 20 13 34 18
19 3 -7 -1 -17 -7 -23z m2154 -5 c-3 -3 -11 0 -18 7 -9 10 -8 11 6 5 10 -3 15
-9 12 -12z m-2224 -29 c-5 -10 -25 -34 -45 -52 -31 -30 -36 -32 -36 -15 0 11
-6 26 -12 33 -11 11 -9 12 10 6 13 -4 22 -2 22 4 0 6 6 11 14 11 7 0 19 7 26
15 17 21 33 19 21 -2z m51 5 c-15 -15 -16 -32 -2 -23 20 12 10 -16 -14 -40
-13 -13 -22 -26 -20 -28 3 -2 -2 -10 -11 -17 -8 -7 -15 -9 -15 -6 0 4 -13 -2
-29 -13 -40 -29 -53 -26 -16 4 29 23 29 24 5 18 -23 -6 -21 -2 19 43 24 27 51
55 59 62 20 16 40 16 24 0z m160 -177 c10 -14 27 -44 38 -68 10 -23 29 -53 42
-66 37 -37 103 -138 121 -185 10 -23 17 -70 18 -105 1 -46 3 -56 9 -37 7 21 8
18 9 -19 1 -48 -38 -119 -98 -175 -28 -27 -32 -28 -61 -16 -16 7 -30 17 -30
22 0 5 -5 6 -12 2 -7 -4 -8 -3 -4 5 4 6 12 9 17 6 5 -4 9 -2 9 4 0 10 -20 32
-48 53 -10 7 -25 25 -35 40 -9 15 -27 33 -39 39 -22 12 -22 11 -5 -8 21 -24
22 -34 2 -27 -11 5 -14 1 -9 -12 3 -11 -19 7 -49 39 -82 86 -122 177 -143 325
-9 67 -14 128 -11 136 11 27 27 17 27 -16 0 -41 6 -34 13 17 4 23 3 34 -2 26
-5 -8 -11 -9 -14 -3 -4 5 11 28 32 50 22 22 56 68 77 102 l37 60 45 -82 c25
-46 53 -94 64 -107z m705 142 c-3 -10 -5 -2 -5 17 0 19 2 27 5 18 2 -10 2 -26
0 -35z m228 -82 c-15 -61 -30 -113 -33 -115 -15 -9 -4 141 13 175 47 91 52 75
20 -60z m-1285 60 c-5 -18 -6 -46 -3 -63 5 -27 -6 -47 -28 -48 -9 0 8 105 21
130 16 30 22 20 10 -19z m453 15 c-23 -8 -58 -23 -78 -36 -29 -18 -38 -20 -51
-9 -30 25 38 57 121 58 l50 0 -42 -13z m1312 -84 c-5 -5 -25 69 -24 88 0 8 7
-7 14 -35 8 -27 12 -51 10 -53z m-674 59 c6 10 9 8 9 -8 0 -12 -4 -25 -10 -28
-5 -3 -10 -2 -10 4 0 5 -2 15 -3 23 -2 7 -2 9 1 4 2 -4 8 -2 13 5z m93 -56
c-10 -7 -15 -19 -11 -28 6 -16 -9 -34 -19 -24 -10 9 25 78 36 72 7 -5 5 -11
-6 -20z m-559 -19 c33 -18 65 -42 70 -52 6 -11 20 -34 33 -51 34 -47 27 -49
-25 -6 -54 43 -115 77 -155 87 -16 3 -28 11 -28 16 0 6 -11 10 -25 10 -14 0
-25 -4 -25 -10 0 -5 -15 -10 -32 -10 l-33 -1 25 -14 25 -14 -23 -1 c-27 0 -82
26 -82 40 0 6 10 10 23 10 12 1 33 7 47 15 14 8 52 14 85 15 50 0 70 -6 120
-34z m205 -12 c11 -26 20 -49 20 -53 0 -12 -49 74 -50 87 0 23 9 12 30 -34z
m-110 -1 c14 -20 37 -49 51 -64 14 -14 36 -42 49 -60 18 -25 7 -19 -40 26 -94
88 -123 122 -108 128 21 9 22 8 48 -30z m513 -44 c-11 -41 -32 -54 -69 -45
-26 7 -27 9 -11 20 9 7 17 18 17 25 0 6 4 11 10 11 5 0 9 -8 7 -17 -5 -40 18
-24 32 22 17 52 28 40 14 -16z m-93 31 c0 -5 -4 -10 -9 -10 -6 0 -13 5 -16 10
-3 6 1 10 9 10 9 0 16 -4 16 -10z m-27 -24 c7 4 9 4 5 -1 -4 -4 -3 -14 3 -22
8 -9 8 -13 1 -13 -12 0 -42 39 -42 55 0 5 5 2 11 -8 6 -9 16 -14 22 -11z
m-448 -51 c80 -56 88 -66 135 -150 38 -69 45 -90 49 -157 4 -42 3 -74 -1 -71
-5 2 -8 11 -8 19 0 21 -51 127 -57 120 -3 -3 0 -13 7 -21 10 -12 10 -19 2 -27
-9 -9 -12 -8 -12 5 0 9 -5 17 -11 17 -7 0 -5 -10 6 -26 9 -14 14 -28 12 -30
-6 -6 -137 190 -137 204 0 16 -79 112 -98 119 -9 4 -30 15 -46 24 l-30 18 24
9 c33 12 104 -10 165 -53z m1335 31 c0 -7 -6 -19 -14 -25 -11 -9 -15 -8 -20 5
-4 10 -1 21 6 26 19 12 28 10 28 -6z m-895 -26 c3 -6 -1 -7 -9 -4 -18 7 -21
14 -7 14 6 0 13 -4 16 -10z m1032 -14 c42 -48 55 -140 22 -149 -13 -4 -19 -14
-19 -32 0 -24 -2 -26 -16 -14 -17 14 -16 3 12 -95 17 -61 17 -66 0 -66 -9 0
-12 9 -10 28 2 15 1 19 -2 9 -7 -23 -91 149 -100 203 -3 19 -9 43 -15 52 -13
24 -11 28 7 21 11 -4 27 6 50 31 18 20 37 36 42 36 4 0 18 -11 29 -24z m353
15 c0 -6 -4 -13 -10 -16 -5 -3 -10 1 -10 9 0 9 5 16 10 16 6 0 10 -4 10 -9z
m-1245 -31 c-8 -12 -65 -13 -83 -1 -9 5 5 9 38 10 31 0 49 -3 45 -9z m1298 -7
c-4 -11 -3 -14 6 -9 6 4 11 4 10 -1 -1 -4 1 -16 6 -27 5 -11 2 -37 -7 -65 -9
-25 -26 -80 -38 -121 -15 -48 -33 -84 -51 -103 -16 -16 -29 -32 -29 -35 0 -26
-23 -81 -35 -86 -25 -9 -13 107 18 179 14 33 21 62 16 63 -14 6 1 71 28 124
33 63 94 129 76 81z m-1964 -83 c16 -33 26 -60 22 -60 -6 0 -61 103 -61 115 0
17 14 -3 39 -55z m41 -15 c5 -22 5 -34 -1 -28 -10 10 -25 81 -15 71 4 -3 12
-23 16 -43z m332 9 c-9 -16 -10 -14 -9 8 1 15 6 23 11 18 4 -4 4 -16 -2 -26z
m-397 -33 c14 -28 36 -101 30 -101 -3 0 -58 108 -74 145 -9 21 31 -20 44 -44z
m528 29 c36 -1 39 -2 22 -12 -11 -6 -31 -21 -45 -33 -14 -12 -37 -29 -52 -38
l-28 -17 7 32 c11 60 22 80 39 74 9 -3 34 -6 57 -6z m65 -50 c-18 -27 -37 -50
-42 -50 -6 0 -5 5 2 12 7 7 12 19 12 27 0 16 38 61 52 61 4 0 -7 -22 -24 -50z
m822 0 c18 -27 51 -94 75 -147 23 -54 68 -154 99 -223 85 -189 69 -197 -29
-15 -12 22 -36 63 -53 90 -17 28 -32 58 -32 68 0 9 -4 25 -9 35 -18 32 -61
152 -61 168 0 8 -7 28 -15 44 -24 46 -11 35 25 -20z m56 -35 c8 -19 11 -35 7
-35 -8 0 -53 89 -53 105 0 14 29 -30 46 -70z m-1365 8 l24 -27 -24 15 c-14 9
-27 21 -29 27 -6 19 3 14 29 -15z m419 -19 c-12 -22 -26 -43 -31 -48 -5 -6 -9
-18 -9 -27 0 -9 -7 -23 -17 -30 -15 -13 -15 -12 -5 8 17 30 15 35 -8 28 -16
-5 -19 -3 -13 11 7 20 94 106 100 100 2 -2 -6 -21 -17 -42z m-446 -57 c13
-153 17 -345 7 -352 -8 -4 -11 22 -11 82 0 48 -7 142 -15 208 -8 66 -14 129
-14 140 0 19 0 19 14 2 7 -11 16 -47 19 -80z m1003 52 c8 -8 17 -8 31 0 28 15
32 14 26 -4 -4 -8 -13 -15 -20 -15 -8 0 -17 -8 -20 -17 -14 -43 -29 -63 -47
-63 -17 0 -19 5 -13 31 3 17 6 42 6 55 0 25 18 32 37 13z m1013 -13 c0 -7 9
-25 21 -40 15 -19 19 -34 14 -56 -4 -17 -11 -30 -16 -30 -5 0 -9 -13 -9 -29 0
-17 -4 -32 -9 -35 -4 -3 -11 -24 -15 -48 -13 -79 -40 -158 -53 -153 -7 2 -13
0 -13 -5 0 -20 -2 -25 -13 -39 -6 -7 -12 -18 -14 -25 -6 -32 -32 -91 -40 -93
-6 -2 -16 31 -23 73 -11 62 -11 94 -1 173 7 53 17 113 22 133 12 49 86 159
110 165 11 3 19 9 19 14 0 5 5 9 10 9 6 0 10 -6 10 -14z m-1545 -55 c-2 -27
-9 -61 -15 -77 -9 -23 -13 -26 -21 -14 -7 11 -8 4 -3 -21 3 -22 2 -39 -5 -43
-6 -4 -11 -19 -12 -34 0 -24 -1 -25 -9 -7 -12 28 -12 32 6 49 14 15 14 17 0
22 -9 3 -16 14 -16 23 0 14 2 14 10 1 8 -12 10 -10 10 8 0 14 -4 21 -11 17 -5
-4 -3 8 5 27 51 115 69 130 61 49z m596 -17 c-36 -15 -39 -9 -11 22 22 23 25
23 31 7 4 -13 -1 -21 -20 -29z m-289 0 c-4 -21 -2 -25 8 -19 10 6 12 4 7 -9
-4 -10 2 -35 13 -57 12 -22 18 -45 14 -50 -4 -6 -20 23 -37 66 -26 64 -28 78
-16 86 8 5 15 9 15 9 1 0 -1 -12 -4 -26z m-42 -1 c0 -15 -53 -73 -67 -73 -9 0
-21 -7 -28 -17 -7 -9 -17 -13 -23 -9 -21 13 -13 23 34 41 28 10 50 27 56 41
10 22 28 33 28 17z m462 -86 c25 -35 16 -48 -11 -16 -11 13 -20 19 -21 13 0
-6 7 -17 15 -24 17 -14 20 -56 4 -65 -13 -9 -59 33 -59 53 0 12 7 9 25 -8 23
-22 37 -16 15 6 -5 5 -6 34 -2 69 4 41 8 51 10 30 2 -16 13 -42 24 -58z m-333
28 c0 -5 -4 -3 -9 5 -5 8 -9 22 -9 30 0 16 17 -16 18 -35z m-124 -2 c-12 -77
-15 -85 -30 -79 -8 3 -15 1 -15 -4 0 -5 -11 -17 -25 -26 -21 -14 -31 -15 -51
-5 l-25 11 33 27 c18 15 36 32 40 38 4 5 9 7 12 5 6 -7 -25 -44 -49 -58 -18
-10 -18 -11 -2 -12 20 0 66 47 67 68 0 7 7 15 15 18 8 4 15 14 15 23 0 16 8
31 17 31 2 0 1 -17 -2 -37z m230 27 c-3 -5 -11 -10 -16 -10 -6 0 -7 5 -4 10 3
6 11 10 16 10 6 0 7 -4 4 -10z m1112 -50 c0 -33 15 -109 34 -172 33 -117 37
-154 18 -200 -13 -33 -17 -34 -35 -10 -9 11 -13 13 -14 4 0 -7 -5 -10 -10 -7
-6 3 -22 -3 -37 -15 -25 -20 -27 -20 -37 -3 -6 10 -11 20 -11 23 -1 3 -6 21
-13 42 -11 32 -10 45 12 115 48 154 66 217 66 230 0 13 17 53 23 53 1 0 3 -27
4 -60z m-1111 8 c1 -10 -6 -28 -17 -40 -10 -13 -18 -19 -19 -14 0 6 -16 -5
-35 -24 -19 -18 -37 -32 -39 -29 -2 2 13 31 33 65 36 61 71 80 77 42z m541
-10 c-3 -8 -6 -5 -6 6 -1 11 2 17 5 13 3 -3 4 -12 1 -19z m-1257 -42 c0 -12
-5 -7 -19 24 -11 24 -11 24 3 6 9 -11 16 -24 16 -30z m-115 -24 c-18 -42 -49
-72 -76 -72 -23 0 -36 20 -19 30 9 5 9 9 1 14 -6 4 -11 15 -11 23 0 14 4 12
21 -6 18 -19 23 -20 37 -9 26 20 32 31 32 57 0 19 2 21 15 11 13 -11 13 -16 0
-48z m716 1 c-5 -10 -31 -38 -57 -63 l-48 -45 53 63 c53 63 70 77 52 45z m269
-14 c0 -10 5 -19 12 -19 6 0 8 -3 5 -7 -10 -9 -44 30 -39 45 6 18 22 4 22 -19z
m-883 -11 c-3 -7 -5 -2 -5 12 0 14 2 19 5 13 2 -7 2 -19 0 -25z m-534 -41 c10
-16 17 -30 14 -33 -9 -9 -57 68 -50 80 4 6 8 4 11 -4 3 -8 14 -28 25 -43z
m1621 -14 c-8 -31 -35 -72 -47 -73 -9 0 9 37 23 45 6 3 10 17 10 31 0 13 5 24
10 24 6 0 8 -11 4 -27z m-1698 -40 c-18 -33 -21 -26 -6 13 6 15 13 24 16 21 3
-3 -1 -18 -10 -34z m448 2 c-7 -19 -14 -52 -14 -74 0 -22 -4 -43 -10 -46 -16
-10 -12 56 6 108 9 26 20 47 24 47 5 0 2 -16 -6 -35z m936 -35 c-11 -11 -20
-26 -20 -33 0 -12 -39 -52 -45 -45 -1 2 0 19 3 38 4 28 6 31 12 16 5 -16 11
-11 31 30 19 41 25 47 31 32 5 -12 1 -25 -12 -38z m-87 -40 c3 -11 1 -18 -4
-14 -5 3 -9 12 -9 20 0 20 7 17 13 -6z m-1330 -5 c-3 -9 -8 -14 -10 -11 -3 3
-2 9 2 15 9 16 15 13 8 -4z m2604 -27 c-3 -8 -6 -5 -6 6 -1 11 2 17 5 13 3 -3
4 -12 1 -19z m-1094 -44 c-3 -7 -12 -10 -21 -7 -11 5 -14 2 -9 -10 7 -20 -13
-23 -31 -5 -16 16 -15 38 2 38 7 0 19 7 26 15 11 14 14 13 25 -2 7 -9 11 -23
8 -29z m-873 -36 c0 -64 -5 -60 -14 10 -5 37 -4 52 4 47 5 -3 10 -29 10 -57z
m622 30 c-7 -7 -12 -8 -12 -2 0 14 12 26 19 19 2 -3 -1 -11 -7 -17z m-262 -30
c0 -6 -6 -5 -15 2 -8 7 -15 14 -15 16 0 2 7 1 15 -2 8 -4 15 -11 15 -16z m410
7 c0 -9 -9 -15 -21 -15 -18 0 -19 2 -9 15 7 8 16 15 21 15 5 0 9 -7 9 -15z
m1175 -4 c-2 -5 -1 -22 4 -38 10 -36 -6 -206 -20 -211 -5 -2 -9 -8 -9 -14 0
-14 -51 -78 -62 -78 -5 0 -7 3 -5 8 3 4 8 41 11 82 4 43 17 101 31 136 14 35
25 71 25 82 0 30 11 53 21 46 5 -3 7 -9 4 -13z m-1259 -36 c-9 -9 -16 -13 -16
-8 0 12 22 34 28 28 2 -2 -3 -11 -12 -20z m7 -62 c-8 -21 -20 -15 -17 10 4 33
4 33 13 18 5 -8 7 -20 4 -28z m-688 0 c-4 -10 -11 -32 -16 -50 -7 -22 -14 -30
-24 -27 -11 4 -13 -1 -9 -22 3 -16 10 -32 16 -35 7 -4 2 -11 -11 -18 -20 -11
-21 -10 -21 52 0 50 5 70 21 91 24 30 55 36 44 9z m135 -3 c13 -9 13 -11 0
-20 -8 -5 -27 -10 -41 -10 -15 0 -39 -13 -58 -30 -36 -35 -38 -40 -12 -40 10
0 24 -7 31 -15 11 -13 10 -14 -4 -9 -12 5 -15 2 -10 -10 4 -9 9 -15 13 -14 3
2 35 18 70 36 34 18 66 31 69 27 4 -3 1 -10 -7 -14 -7 -5 -11 -12 -9 -17 1 -5
-13 -14 -32 -20 -42 -14 -50 -42 -20 -69 11 -10 20 -22 20 -28 0 -15 -30 14
-47 46 -10 20 -18 26 -25 19 -14 -14 -38 -4 -38 17 0 10 -11 23 -25 29 -16 7
-24 18 -22 29 7 34 40 92 56 96 30 8 76 7 91 -3z m-1214 -48 c-17 -16 -18 -16
-5 5 7 12 15 20 18 17 3 -2 -3 -12 -13 -22z m1164 -7 c0 -2 -10 -9 -22 -15
-22 -11 -22 -10 -4 4 21 17 26 19 26 11z m-240 -13 c0 -4 -9 -13 -20 -19 -15
-10 -21 -10 -26 0 -4 6 -4 9 1 5 4 -4 14 -1 22 7 16 17 23 19 23 7z m910 -2
c-20 -13 -33 -13 -25 0 3 6 14 10 23 10 15 0 15 -2 2 -10z m-1065 -78 c-20
-38 -58 -94 -85 -123 -63 -69 -65 -57 -2 14 26 30 63 84 82 120 19 36 36 64
38 62 2 -2 -13 -35 -33 -73z m1478 11 c12 -21 36 -67 52 -103 16 -36 33 -69
37 -74 13 -17 -25 95 -50 144 -11 22 -10 21 12 -5 14 -16 26 -26 26 -21 0 19
52 -40 81 -91 20 -34 34 -77 40 -121 5 -37 13 -78 18 -92 15 -42 22 -92 11
-85 -6 4 -10 -14 -10 -44 l0 -50 -32 5 c-57 10 -56 8 -45 61 8 39 7 55 -6 83
-9 19 -37 97 -64 174 -35 102 -57 147 -80 173 -31 33 -45 83 -23 83 5 0 20
-17 33 -37z m-1382 1 c-23 -30 -27 -64 -9 -82 9 -9 9 -12 1 -12 -7 0 -19 10
-27 22 -13 18 -18 19 -31 8 -8 -7 -18 -11 -20 -8 -3 3 6 11 20 18 14 7 25 18
25 24 0 12 41 56 52 56 5 0 0 -12 -11 -26z m1409 6 c0 -5 -2 -10 -4 -10 -3 0
-8 5 -11 10 -3 6 -1 10 4 10 6 0 11 -4 11 -10z m-745 -46 c32 -15 82 -30 112
-33 29 -3 52 -10 51 -16 -6 -19 -73 -4 -153 35 -91 44 -98 54 -10 14z m-537
-10 c-4 -3 -9 -5 -12 -5 -13 2 -77 -38 -97 -60 l-20 -24 17 31 c17 32 64 62
98 63 11 1 17 -2 14 -5z m123 -23 c21 -21 29 -39 28 -63 l-1 -33 -13 30 -13
30 -11 -25 -10 -25 0 26 c-1 14 -5 30 -11 37 -7 9 -7 9 2 2 30 -25 29 -6 -1
20 -24 22 -29 30 -17 30 10 0 31 -13 47 -29z m919 -19 c0 -32 -1 -34 -13 -17
-8 10 -19 15 -25 11 -16 -9 -16 26 -1 41 20 20 39 3 39 -35z m630 -62 c136
-157 202 -294 180 -371 -5 -17 -10 -49 -12 -70 -3 -51 -14 -50 -22 1 -3 23
-11 49 -16 58 -5 9 -39 89 -76 177 -37 88 -75 171 -84 185 -30 44 -75 140 -56
119 2 -2 41 -47 86 -99z m-1490 80 c0 -5 -5 -10 -11 -10 -5 0 -7 5 -4 10 3 6
8 10 11 10 2 0 4 -4 4 -10z m582 -22 c-17 -8 -26 -8 -34 0 -9 9 -4 12 23 11
32 0 33 -1 11 -11z m198 2 c-20 -13 -43 -13 -35 0 3 6 16 10 28 10 18 0 19 -2
7 -10z m-64 -11 c3 -5 -11 -9 -31 -9 -20 0 -34 4 -31 9 3 5 17 9 31 9 14 0 28
-4 31 -9z m-1158 -24 c-6 -14 -13 -23 -15 -21 -5 5 15 46 22 46 3 0 -1 -11 -7
-25z m2302 -27 c0 -16 -3 -19 -11 -11 -6 6 -8 16 -5 22 11 17 16 13 16 -11z
m492 2 c12 -11 29 -20 37 -20 21 0 104 -131 136 -213 10 -26 22 -44 27 -41 6
4 8 -1 4 -13 -4 -14 7 -33 45 -71 28 -29 49 -52 46 -52 -3 0 1 -24 9 -52 24
-91 21 -96 -71 -103 -51 -4 -58 3 -69 70 -8 51 -54 164 -111 272 -25 46 -42
89 -39 95 4 6 2 8 -3 5 -6 -4 -14 0 -17 9 -3 8 -2 12 4 9 11 -7 14 8 3 19 -9
8 -33 77 -33 94 0 17 7 15 32 -8z m-1469 -14 c18 -7 41 -25 50 -39 30 -46 18
-50 -25 -7 -38 37 -46 41 -78 35 -43 -8 -76 -37 -90 -81 -14 -41 -26 -43 -33
-7 -8 40 13 74 58 94 48 22 75 23 118 5z m-1333 -16 c0 -11 -4 -20 -10 -20 -5
0 -10 9 -10 20 0 11 5 20 10 20 6 0 10 -9 10 -20z m173 -110 c22 -26 22 -33
-2 -21 -25 14 -40 58 -32 101 6 35 6 35 11 -12 3 -26 13 -57 23 -68z m505 56
c23 -16 41 -34 39 -40 -4 -12 -57 -16 -57 -5 0 5 -12 14 -27 21 -17 8 -28 22
-29 34 -1 12 -4 26 -8 32 -8 14 23 -2 82 -42z m1082 8 c18 -35 20 -36 14 -9
l-6 30 24 -35 c25 -35 26 -43 12 -132 -11 -72 -35 -41 -53 67 -6 39 -14 84
-17 100 -8 37 0 31 26 -21z m82 29 c27 -31 56 -96 76 -173 32 -121 40 -159 31
-162 -5 -2 -9 -18 -11 -35 -2 -32 -4 -33 -44 -33 -41 0 -42 1 -53 44 -6 25
-11 110 -11 189 0 109 -3 147 -13 156 -8 6 -17 8 -20 4 -4 -3 -7 -2 -7 4 0 27
30 30 52 6z m505 -5 c-3 -8 -6 -5 -6 6 -1 11 2 17 5 13 3 -3 4 -12 1 -19z
m-2956 -71 c-11 -28 -35 -28 -45 -1 -7 18 -1 18 18 -2 17 -17 21 -8 7 15 -7
10 -4 19 7 27 22 16 27 -1 13 -39z m1514 25 c-3 -3 -11 0 -18 7 -9 10 -8 11 6
5 10 -3 15 -9 12 -12z m495 -68 c0 -42 -25 -101 -49 -114 -25 -13 -68 -13 -76
0 -4 6 10 10 34 10 50 0 64 21 67 100 2 30 3 57 4 60 2 18 20 -31 20 -56z
m1337 -116 c4 -53 3 -68 -7 -68 -8 0 -22 -8 -32 -17 -18 -16 -19 -13 -14 118
2 74 5 136 6 139 5 17 41 -116 47 -172z m-2437 137 c-13 -14 -33 -25 -44 -25
-16 1 -14 4 10 14 18 8 35 19 38 25 4 6 10 11 13 11 4 0 -4 -11 -17 -25z
m-946 -22 c-7 -2 -9 -14 -6 -26 3 -12 2 -19 -1 -16 -4 3 -9 23 -13 45 -5 38
-5 38 13 20 12 -12 14 -20 7 -23z m-286 -11 c-20 -22 -30 -52 -18 -52 5 0 4
-13 -2 -30 -5 -17 -8 -39 -5 -50 3 -11 1 -18 -4 -14 -5 3 -9 -1 -9 -9 0 -20
38 -10 42 11 3 13 5 13 17 -1 11 -14 11 -18 -5 -23 -11 -3 -35 -14 -55 -25
-20 -10 -39 -19 -42 -19 -8 0 64 222 77 236 17 18 20 -4 4 -24z m226 22 c3 -9
6 -51 6 -94 0 -88 -3 -92 -73 -103 -38 -6 -39 -6 -32 21 4 15 13 41 20 57 7
17 19 48 26 70 21 63 40 82 53 49z m760 -19 c-28 -37 -44 -44 -44 -21 0 14 47
55 63 56 4 0 -4 -16 -19 -35z m2196 -150 c12 -38 30 -89 41 -113 18 -40 27
-113 12 -99 -11 11 -45 110 -50 145 -3 17 -10 32 -15 32 -6 0 -8 7 -5 15 4 8
2 17 -3 20 -6 4 -10 14 -10 24 0 10 -11 28 -25 41 -14 13 -25 29 -25 36 0 7
-14 30 -32 51 -17 21 -4 11 30 -22 52 -52 64 -70 82 -130z m-1563 161 c83 -16
229 -77 216 -89 -3 -4 -23 -5 -42 -2 -35 5 -35 4 -6 -4 17 -5 87 -11 158 -14
170 -5 198 -29 72 -61 -91 -24 -175 -21 -253 10 -59 24 -152 78 -152 89 0 2
24 -7 53 -20 28 -13 66 -27 82 -30 55 -13 -62 55 -134 77 -36 11 -75 25 -86
31 -19 10 -18 12 10 18 17 3 38 5 47 2 9 -2 25 -5 35 -7z m-407 -12 c23 9 39
12 36 7 -9 -14 -72 -41 -96 -41 -19 0 -20 2 -10 15 9 11 9 15 1 15 -7 0 -9 5
-5 12 5 8 11 6 20 -7 12 -17 15 -17 54 -1z m-175 -3 c6 -11 -33 -26 -43 -16
-4 3 0 10 8 15 19 12 27 12 35 1z m2175 -33 c0 -12 -3 -18 -7 -14 -10 10 -11
46 -1 40 4 -3 8 -15 8 -26z m-1609 -39 c19 -15 65 -43 102 -63 38 -20 62 -36
53 -36 -18 0 -20 -13 -7 -39 15 -28 88 -74 103 -65 10 6 10 4 -1 -9 -14 -17
-7 -21 36 -20 7 1 10 -3 7 -8 -3 -5 0 -9 7 -9 7 0 10 -3 7 -6 -7 -6 -85 19
-127 40 -30 16 -225 217 -243 250 -10 19 -10 20 9 6 12 -8 36 -27 54 -41z
m2424 13 c-3 -3 -11 0 -18 7 -9 10 -8 11 6 5 10 -3 15 -9 12 -12z m-2962 -24
c-10 -11 -19 -15 -21 -8 -5 15 18 41 30 34 5 -3 1 -15 -9 -26z m1127 -46 c-7
-3 -26 10 -44 27 l-31 32 43 -28 c24 -15 38 -29 32 -31z m547 6 c-3 -7 -5 -2
-5 12 0 14 2 19 5 13 2 -7 2 -19 0 -25z m-1792 -55 c-57 -155 -224 -387 -297
-412 -15 -6 -28 -7 -28 -4 0 3 28 32 63 65 64 61 62 64 -11 14 -46 -31 -62
-29 -44 7 6 12 13 31 17 43 3 12 44 59 92 105 47 46 97 95 109 108 13 13 30
21 38 18 11 -5 23 10 43 53 32 70 44 71 18 3z m3075 37 c0 -5 -4 -10 -10 -10
-5 0 -10 5 -10 10 0 6 5 10 10 10 6 0 10 -4 10 -10z m-3930 -10 c12 -8 11 -10
-7 -10 -13 0 -23 5 -23 10 0 13 11 13 30 0z m3219 -110 c69 -100 93 -163 66
-174 -8 -3 -14 -2 -13 2 4 18 -24 91 -41 106 -11 10 -17 24 -15 30 3 7 -16 40
-42 72 -68 85 -73 93 -30 54 20 -19 55 -60 75 -90z m-1059 80 c-20 -13 -33
-13 -25 0 3 6 14 10 23 10 15 0 15 -2 2 -10z m-1217 -20 c-3 -11 -13 -20 -22
-21 -10 0 -11 -2 -3 -6 20 -8 14 -18 -13 -21 -22 -2 -24 1 -15 18 8 15 47 50
56 50 1 0 0 -9 -3 -20z m637 -51 c16 -27 26 -49 21 -49 -11 0 -21 13 -56 75
-36 63 -7 41 35 -26z m444 59 c-5 -8 6 -10 42 -5 68 8 104 0 96 -22 -7 -19
-55 -66 -68 -66 -12 -1 -71 -36 -98 -58 l-21 -19 23 5 c12 3 22 0 23 -6 0 -8
2 -8 6 1 2 6 9 12 14 12 6 0 7 -5 3 -12 -4 -7 -3 -8 5 -4 6 4 9 11 6 16 -3 4
2 13 10 20 12 10 15 9 15 -8 0 -30 -20 -41 -70 -36 -75 6 -190 34 -140 34 10
0 10 3 0 15 -22 26 -101 76 -111 69 -5 -3 -8 -1 -7 5 2 6 -10 22 -27 37 -21
18 -24 23 -10 18 11 -4 52 -15 90 -25 81 -21 127 -17 182 17 44 27 47 28 37
12z m2011 -28 c-3 -5 -12 -10 -18 -10 -7 0 -6 4 3 10 19 12 23 12 15 0z
m-1777 -12 c5 -7 17 -48 26 -91 9 -44 18 -83 22 -88 11 -18 -19 -8 -48 16 -32
27 -121 57 -143 48 -26 -9 -17 22 14 51 29 27 99 75 112 76 4 0 11 -6 17 -12z
m287 -8 c0 -8 6 -21 13 -28 7 -8 10 -18 7 -23 -8 -12 -45 -12 -45 0 0 5 -3 23
-6 41 -6 28 -4 32 12 28 10 -2 19 -10 19 -18z m-101 -22 c10 -39 7 -66 -10
-72 -9 -3 -16 -6 -17 -6 -1 0 -3 23 -5 50 -2 38 1 50 12 50 7 0 16 -10 20 -22z
m-1511 -5 c-7 -2 -19 -2 -25 0 -7 3 -2 5 12 5 14 0 19 -2 13 -5z m-21 -27 c20
-10 29 -11 38 -2 10 9 11 3 7 -28 -4 -21 -9 -41 -12 -44 -7 -7 -75 16 -98 33
-16 11 -16 16 -5 34 15 24 33 26 70 7z m1423 -66 c0 -38 -3 -70 -7 -70 -5 0
-8 24 -8 54 0 30 -3 61 -6 70 -4 10 -1 16 7 16 11 0 14 -18 14 -70z m423 39
c1 -17 9 -47 17 -66 19 -46 19 -56 -1 -45 -10 5 -25 31 -36 58 -32 85 -32 84
-6 84 19 0 24 -6 26 -31z m1255 11 c3 -11 1 -20 -4 -20 -5 0 -9 9 -9 20 0 11
2 20 4 20 2 0 6 -9 9 -20z m-1413 -49 c0 -54 16 -78 23 -34 3 23 4 21 6 -9 1
-43 -9 -47 -46 -18 -14 11 -22 20 -18 20 4 0 -5 16 -20 36 -31 40 -24 54 28
54 26 0 27 -2 27 -49z m-106 14 c-4 -8 -1 -15 5 -15 5 0 29 -27 51 -60 24 -35
35 -60 28 -60 -9 0 -9 -3 2 -11 12 -9 11 -9 -5 -4 -11 4 -29 9 -40 11 l-20 4
20 -9 c17 -7 14 -10 -25 -21 -25 -6 -57 -23 -71 -36 l-26 -25 -6 22 c-3 12 -3
59 0 104 6 86 9 91 63 108 26 9 30 7 24 -8z m1628 -47 c-6 -6 -98 -23 -249
-45 -32 -5 -45 8 -23 22 6 4 60 10 121 15 80 6 116 12 127 24 12 12 18 13 24
3 4 -6 4 -15 0 -19z m-2426 -100 c34 -36 101 -95 150 -132 124 -92 149 -113
94 -80 -129 77 -270 201 -332 293 -26 38 -22 50 5 14 12 -16 49 -59 83 -95z
m1474 95 c0 -22 -2 -25 -10 -13 -13 20 -13 40 0 40 6 0 10 -12 10 -27z m-2315
-68 c-11 -51 -33 -120 -42 -134 -6 -9 -42 32 -37 41 3 4 0 7 -8 6 -8 -2 -12 4
-10 17 5 28 42 76 53 70 5 -4 9 -1 9 6 0 12 41 62 46 56 1 -1 -4 -29 -11 -62z
m291 40 c-8 -30 2 -33 13 -4 7 20 10 18 33 -22 24 -40 28 -76 7 -63 -5 3 -9
-2 -9 -10 0 -8 4 -17 9 -21 6 -3 8 -15 6 -27 -5 -24 -15 -37 -15 -19 0 7 -4 9
-10 6 -5 -3 -10 1 -10 11 0 14 2 15 18 3 15 -12 16 -12 6 1 -7 8 -14 24 -17
35 -4 18 -5 17 -6 -3 -1 -14 -5 -21 -12 -16 -8 4 -9 -1 -4 -17 l7 -24 -16 22
c-20 27 -28 117 -14 149 15 31 22 31 14 -1z m2564 -19 c0 -7 -8 -20 -17 -27
-14 -12 -16 -12 -8 0 6 11 4 13 -11 7 -18 -7 -18 -6 1 13 24 24 35 26 35 7z
m-902 -18 c6 -6 12 -16 12 -23 0 -7 8 -23 19 -36 23 -30 35 -80 26 -118 l-6
-28 -37 34 c-52 47 -66 59 -85 66 -12 4 -17 18 -17 44 l1 38 15 -27 c8 -16 17
-28 19 -28 2 0 1 23 -2 51 -6 51 -6 51 18 44 13 -4 30 -12 37 -17z m183 -5
c13 -16 12 -17 -3 -4 -17 13 -22 21 -14 21 2 0 10 -8 17 -17z m195 -40 c-11
-11 -19 6 -11 24 8 17 8 17 12 0 3 -10 2 -21 -1 -24z m-1608 -9 c-3 -14 -5
-12 -10 9 -3 19 -2 25 4 19 6 -6 8 -18 6 -28z m-838 10 c0 -8 -5 -12 -10 -9
-6 4 -8 11 -5 16 9 14 15 11 15 -7z m3460 9 c0 -5 -5 -15 -10 -23 -7 -12 -9
-10 -7 8 1 19 17 33 17 15z m-146 -29 c7 -19 2 -18 -19 6 -16 17 -16 20 -3 15
9 -4 19 -13 22 -21z m100 -13 c-5 -6 -34 20 -34 30 0 5 8 1 18 -8 10 -10 17
-20 16 -22z m-3339 -79 c16 -9 17 -13 6 -21 -7 -5 -13 -20 -13 -35 0 -22 -5
-26 -30 -26 -21 0 -29 -4 -25 -13 3 -8 -3 -20 -14 -28 -10 -7 -19 -18 -19 -25
0 -6 -9 -22 -20 -35 -12 -12 -30 -38 -41 -56 -11 -18 -25 -33 -30 -33 -5 0 -9
-7 -9 -15 0 -11 -8 -13 -30 -9 -25 5 -31 3 -39 -17 -4 -13 -6 -30 -4 -36 3 -7
-1 -14 -8 -14 -31 -3 -36 -5 -55 -23 -19 -19 -19 -19 -27 33 -6 38 -4 81 7
146 20 120 33 148 63 142 15 -3 23 1 23 10 0 8 4 12 9 9 5 -3 12 10 15 29 4
20 11 33 17 30 5 -4 6 -11 3 -17 -4 -6 -1 -9 5 -7 7 3 12 8 11 13 -1 5 6 13
15 19 12 6 20 4 30 -10 8 -10 15 -21 15 -25 0 -5 5 -8 10 -8 6 0 4 15 -5 36
-17 42 -20 74 -5 74 6 0 10 -4 10 -10 0 -5 5 -10 10 -10 6 0 10 8 10 19 0 14
11 7 48 -29 26 -26 56 -52 67 -58z m3115 99 c0 -11 -59 -36 -66 -28 -3 3 7 12
23 20 34 18 43 20 43 8z m-881 -45 c-3 -3 -11 5 -18 17 -13 21 -12 21 5 5 10
-10 16 -20 13 -22z m-1349 4 c0 -5 4 -9 8 -7 8 2 92 -66 92 -76 0 -3 -8 -7
-17 -9 -13 -3 -25 9 -40 37 -12 22 -22 34 -23 26 0 -11 -5 -10 -20 4 -22 20
-26 35 -10 35 6 0 10 -4 10 -10z m538 -21 c-3 -8 -7 -3 -11 10 -4 17 -3 21 5
13 5 -5 8 -16 6 -23z m-1723 11 c-3 -5 -12 -10 -19 -10 -8 0 -19 -7 -27 -16
-7 -8 -34 -27 -61 -40 -36 -18 -48 -21 -48 -10 0 31 36 58 95 70 33 8 61 14
63 15 2 0 0 -3 -3 -9z m2424 -49 c38 -51 40 -56 24 -73 -20 -23 -35 -23 -62 0
-18 15 -20 24 -14 75 3 32 7 56 8 55 2 -2 21 -28 44 -57z m68 47 c25 -32 56
-98 49 -105 -4 -4 -10 -3 -14 3 -9 14 -45 27 -37 14 3 -6 3 -10 -2 -10 -15 0
-34 58 -27 84 7 29 16 33 31 14z m240 -20 c-3 -8 -6 -5 -6 6 -1 11 2 17 5 13
3 -3 4 -12 1 -19z m656 5 c13 -13 36 -18 72 -18 29 0 51 -3 48 -7 -2 -5 -25
-8 -51 -8 -35 0 -55 6 -77 25 -16 13 -26 24 -21 25 5 0 18 -8 29 -17z m351
-14 c-19 -21 -65 -49 -81 -49 -7 0 86 67 96 69 2 1 -4 -8 -15 -20z m-1790 -5
c3 -8 2 -12 -4 -9 -6 3 -10 10 -10 16 0 14 7 11 14 -7z m736 -19 c0 -8 -2 -15
-4 -15 -2 0 -6 7 -10 15 -3 8 -1 15 4 15 6 0 10 -7 10 -15z m-1499 -49 c10
-12 16 -22 14 -24 -5 -6 -65 28 -65 37 0 16 35 7 51 -13z m2292 -13 c-7 -2
-19 -2 -25 0 -7 3 -2 5 12 5 14 0 19 -2 13 -5z m-2310 -30 c9 -3 17 -9 17 -14
0 -16 -27 -10 -51 12 -21 18 -21 20 -4 14 11 -4 28 -10 38 -12z m-188 -13 c10
-11 16 -20 13 -20 -3 0 -13 9 -23 20 -10 11 -16 20 -13 20 3 0 13 -9 23 -20z
m419 -47 c36 -14 63 -30 60 -35 -3 -4 0 -8 5 -8 14 0 14 13 0 27 -8 8 -6 13 9
17 29 10 103 3 98 -9 -1 -5 -10 -9 -18 -7 -19 3 -52 -33 -43 -47 3 -6 21 -18
38 -27 l32 -15 -22 20 c-30 25 -31 46 -3 31 11 -6 25 -8 30 -5 6 4 9 1 8 -6
-2 -7 10 -16 27 -19 30 -7 24 -13 -20 -23 -15 -4 -14 -5 6 -6 15 0 38 8 53 20
21 17 24 24 15 35 -26 31 2 25 35 -8 45 -45 60 -101 45 -163 -14 -54 -35 -75
-25 -24 13 61 12 113 -1 142 -17 33 -23 35 -21 3 2 -27 -20 -76 -34 -76 -13 0
-38 -26 -38 -39 0 -6 -9 -15 -20 -21 -10 -6 -18 -16 -16 -23 1 -6 1 -8 -2 -3
-2 4 -9 2 -14 -5 -5 -9 -6 -4 -2 14 7 29 -11 61 -28 51 -5 -3 -17 0 -26 8 -28
23 -72 39 -72 26 0 -6 -8 -4 -19 6 -12 11 -21 14 -26 7 -9 -15 4 -33 18 -25 7
3 4 -1 -5 -8 -16 -13 -15 -17 8 -55 13 -23 39 -50 56 -62 18 -11 26 -21 18
-21 -18 0 -100 79 -100 97 0 8 -7 25 -16 38 -9 13 -13 28 -10 33 3 5 -3 17
-14 27 -11 10 -20 23 -20 28 0 6 -7 18 -15 27 -14 15 -14 19 -1 30 13 10 21 6
45 -21 17 -18 28 -35 25 -38 -3 -3 -19 10 -35 29 -16 19 -29 30 -29 24 0 -16
58 -74 74 -74 22 0 21 3 -20 63 -38 55 -65 76 -101 77 -12 0 -25 5 -28 10 -12
20 76 10 139 -17z m-219 -44 c9 -13 3 -11 -45 14 -24 13 -45 28 -48 35 -4 12
84 -33 93 -49z m-232 -3 c31 -7 37 -26 8 -26 -29 0 -71 18 -71 30 0 6 8 9 18
7 9 -3 29 -8 45 -11z m-1195 -51 c-2 -2 -19 0 -38 5 -29 6 -31 11 -5 10 3 -1
13 7 23 17 16 16 17 16 20 -6 2 -12 2 -24 0 -26z m1119 -12 c5 6 43 -35 43
-47 0 -3 -18 5 -40 16 -22 12 -40 28 -40 36 0 12 3 12 15 2 9 -7 18 -10 22 -7z
m1726 -72 c-1 -2 -10 2 -18 9 -11 9 -13 16 -5 24 5 5 11 21 12 36 0 14 4 5 7
-20 4 -25 5 -47 4 -49z m-2732 -14 c-8 -8 -11 -7 -11 4 0 16 -60 20 -73 4 -4
-5 -6 5 -5 23 2 28 18 48 18 21 0 -6 5 -7 13 -2 6 4 20 6 29 5 10 -2 20 6 25
20 7 19 9 16 11 -21 2 -24 -2 -49 -7 -54z m2893 57 c3 -9 -1 -14 -14 -14 -13
0 -20 7 -20 20 0 22 25 18 34 -6z m111 16 c-3 -5 -1 -10 4 -10 6 0 11 -4 11
-10 0 -14 -19 -12 -35 4 -15 15 -10 26 12 26 8 0 11 -4 8 -10z m-65 -25 c-7
-8 -17 -15 -22 -15 -6 0 -5 7 2 15 7 8 17 15 22 15 6 0 5 -7 -2 -15z m208 -63
c47 -49 86 -118 108 -191 27 -90 54 -253 53 -324 -1 -68 -2 -70 -9 -27 -5 25
-13 56 -19 70 -11 24 -11 24 -8 -7 2 -18 0 -33 -4 -33 -14 0 -31 60 -25 87 5
20 4 24 -3 13 -9 -13 -10 -13 -15 0 -89 284 -118 351 -170 402 -34 33 -35 37
-21 52 25 25 64 10 113 -42z m-3311 6 c7 -5 17 -7 22 -4 5 4 13 2 16 -4 4 -6
-7 -25 -24 -42 -27 -28 -32 -30 -48 -17 -16 12 -17 12 -6 -2 11 -13 7 -21 -20
-47 -18 -18 -37 -29 -42 -25 -4 5 -5 3 -2 -3 4 -7 1 -17 -7 -23 -11 -9 -18 -8
-32 6 -16 17 -17 16 -12 -10 3 -15 1 -27 -3 -27 -5 0 -9 6 -9 14 0 7 -3 28 -7
46 -4 23 -3 31 5 26 6 -4 8 -14 5 -23 -8 -20 8 -11 55 32 19 16 36 29 38 28 2
-2 12 5 23 16 10 10 24 20 32 23 8 3 10 11 5 24 -5 11 -10 14 -13 7 -3 -8 -12
-9 -34 -1 -16 6 -38 8 -49 5 -23 -6 -24 -3 -10 23 10 18 12 18 58 3 26 -9 52
-20 59 -25z m3133 32 c0 -5 -5 -10 -11 -10 -5 0 -7 5 -4 10 3 6 8 10 11 10 2
0 4 -4 4 -10z m-90 -10 c0 -5 -9 -14 -19 -20 -25 -13 -38 5 -14 19 23 13 33
14 33 1z m-1750 -10 c0 -5 -7 -10 -16 -10 -8 0 -12 5 -9 10 3 6 10 10 16 10 5
0 9 -4 9 -10z m194 -13 c-4 -11 -54 -18 -54 -7 0 8 44 27 52 23 4 -2 5 -9 2
-16z m33 -24 c-3 -10 -5 -4 -5 12 0 17 2 24 5 18 2 -7 2 -21 0 -30z m725 15
c10 0 20 -3 23 -9 4 -5 17 -9 30 -9 26 0 138 -40 131 -47 -7 -7 -194 45 -224
62 -26 15 -26 16 -2 9 14 -4 33 -7 42 -6z m791 -14 c-27 -20 -39 -17 -18 6 10
11 22 17 27 14 5 -3 1 -12 -9 -20z m-1216 -6 c28 -26 30 -58 4 -58 -13 0 -18
6 -17 18 2 9 -4 27 -12 40 -18 28 -5 29 25 0z m178 -17 c18 -35 13 -54 -21
-71 -13 -7 -24 -17 -24 -22 0 -4 -13 -8 -30 -8 -23 0 -30 5 -30 19 0 23 19 31
41 18 26 -16 49 -1 49 33 0 16 -4 30 -10 30 -5 0 -7 7 -4 15 8 21 11 19 29
-14z m1126 9 c25 -14 85 -133 104 -207 16 -62 20 -147 6 -125 -5 8 -10 -23
-14 -77 -4 -49 -14 -108 -23 -130 l-16 -41 -20 23 -19 22 4 -27 c2 -16 -1 -36
-8 -45 -11 -15 -12 -7 -10 47 2 36 2 59 -1 52 -3 -6 -9 -10 -14 -7 -4 3 -6 -5
-2 -17 4 -16 2 -19 -8 -13 -10 6 -12 3 -8 -13 4 -14 2 -20 -5 -15 -6 4 -8 -2
-5 -15 4 -12 2 -22 -4 -22 -6 0 -8 -7 -4 -15 3 -8 1 -15 -4 -15 -6 0 -10 -7
-10 -16 0 -8 -4 -13 -9 -9 -6 3 -3 27 7 58 12 39 17 89 17 197 0 129 -2 150
-22 194 -30 63 -29 84 1 28 21 -40 23 -42 37 -26 8 10 9 15 3 11 -7 -4 -14 2
-17 14 -4 15 -2 19 9 15 22 -9 18 82 -6 121 -21 36 -7 60 16 28 8 -10 17 -16
21 -12 3 4 -2 16 -12 27 -20 22 -14 26 16 10z m-975 -12 c4 -6 3 -8 -3 -5 -6
4 -16 0 -23 -8 -7 -8 -17 -15 -23 -15 -5 0 -2 9 8 20 21 23 31 25 41 8z m-186
-24 c0 -8 -5 -12 -10 -9 -6 4 -8 11 -5 16 9 14 15 11 15 -7z m-443 -41 c-3
-10 -5 -2 -5 17 0 19 2 27 5 18 2 -10 2 -26 0 -35z m1043 15 c46 -7 65 -14 50
-16 -32 -5 -158 17 -166 29 -3 6 4 8 18 5 12 -3 57 -11 98 -18z m-475 -18 c-4
-12 -9 -19 -12 -17 -3 3 -2 15 2 27 4 12 9 19 12 17 3 -3 2 -15 -2 -27z m255
3 c-1 -10 -50 -46 -55 -41 -8 8 26 48 41 48 8 0 14 -3 14 -7z m-2281 -69 c1
-9 -10 -9 -39 -2 l-40 11 32 24 33 24 7 -23 c3 -13 6 -28 7 -34z m2429 -14
c-7 -11 -16 -20 -21 -20 -4 0 -3 9 3 20 6 11 15 20 20 20 6 0 5 -9 -2 -20z
m779 -2 c43 -54 120 -250 92 -232 -5 3 -9 -2 -9 -10 0 -9 5 -16 10 -16 6 0 10
-8 10 -18 0 -10 5 -23 11 -29 7 -7 8 -17 2 -28 -8 -13 -12 -8 -22 27 -7 24
-34 95 -61 158 -26 63 -51 125 -54 138 -8 24 5 30 21 10z m-396 -35 c-8 -15
-10 -15 -11 -2 0 17 10 32 18 25 2 -3 -1 -13 -7 -23z m164 -42 c25 -50 36
-164 25 -256 -11 -85 -48 -209 -73 -246 l-15 -21 -8 24 c-4 12 -8 30 -9 38 -1
8 -9 31 -18 50 -14 33 -18 58 -32 207 l-6 62 46 20 c25 11 45 26 46 33 1 7 2
27 4 44 3 33 14 74 20 74 3 0 11 -13 20 -29z m-2634 -105 c1 5 5 -9 10 -31 4
-22 5 -54 2 -72 l-5 -32 63 -3 c50 -2 64 -7 67 -20 5 -25 -63 -94 -137 -138
-91 -55 -118 -80 -124 -118 -3 -18 -11 -40 -18 -48 -14 -18 -22 -71 -10 -78 5
-3 19 3 31 14 13 11 25 20 27 20 9 0 -53 -97 -76 -120 -14 -14 -38 -41 -53
-60 l-27 -35 -1 55 c0 44 7 69 36 126 26 51 38 92 44 145 15 130 36 195 106
332 8 16 14 37 14 47 0 22 20 31 38 17 6 -5 13 -6 13 -1z m280 -213 c-12 -20
-14 -14 -5 12 4 9 9 14 11 11 3 -2 0 -13 -6 -23z m-36 -93 c-10 -11 -20 -18
-23 -15 -3 3 3 14 13 25 10 11 20 18 23 15 3 -3 -3 -14 -13 -25z m200 20 c-3
-5 -13 -10 -21 -10 -8 0 -12 5 -9 10 3 6 13 10 21 10 8 0 12 -4 9 -10z m-85
-20 c-20 -13 -33 -13 -25 0 3 6 14 10 23 10 15 0 15 -2 2 -10z m2182 -83 c13
-40 14 -55 5 -72 -11 -19 -12 -18 -15 10 -2 17 -7 52 -11 78 -10 59 -1 52 21
-16z m-1778 -17 c41 -41 28 -46 -22 -10 -23 16 -46 30 -51 30 -6 0 -13 5 -17
12 -15 24 61 -3 90 -32z m1580 -90 c4 -24 3 -29 -3 -15 -4 11 -11 36 -15 55
-4 24 -3 29 3 15 4 -11 11 -36 15 -55z m-1148 9 c3 -6 2 -15 -4 -21 -6 -6 -11
-2 -15 11 -5 22 7 29 19 10z m-369 -5 c-3 -3 -12 -4 -19 -1 -8 3 -5 6 6 6 11
1 17 -2 13 -5z m1550 -201 c-6 -54 -15 -48 -19 12 -2 46 -1 53 10 38 6 -9 11
-32 9 -50z m-1011 -370 c-1 -1 -23 4 -50 10 -48 13 -50 25 -6 39 12 4 64 -41
56 -49z m-461 7 c4 -6 16 -8 28 -4 20 6 19 5 -4 -23 -20 -25 -27 -28 -44 -19
-11 6 -22 12 -23 13 -2 1 -1 11 3 22 7 22 29 28 40 11z m-360 -10 c3 -6 -1 -7
-9 -4 -18 7 -21 14 -7 14 6 0 13 -4 16 -10z m209 -5 c3 -10 -3 -17 -21 -21
l-27 -7 25 -10 c13 -6 29 -9 34 -7 41 11 85 7 101 -11 20 -22 7 -25 -20 -4
-11 8 -28 15 -38 15 -27 0 -11 -28 22 -35 23 -5 150 -113 150 -128 0 -15 -123
27 -149 51 -7 7 -16 10 -20 7 -3 -4 5 -16 19 -28 28 -24 34 -72 10 -72 -8 0
-14 7 -12 16 1 10 -4 16 -14 15 -11 -1 -21 13 -30 45 -16 55 -50 93 -38 43 l7
-29 -22 27 c-11 14 -21 35 -21 45 0 10 -9 25 -20 33 -19 14 -19 15 13 42 37
32 43 33 51 13z m586 -5 c20 -13 10 -19 -41 -26 -24 -3 -53 -10 -65 -15 -26
-13 -66 -8 -71 8 -11 31 136 59 177 33z m-694 -21 c17 -13 16 -175 -1 -215
-17 -42 -33 -44 -27 -4 3 23 0 30 -13 30 -9 0 -23 6 -31 14 -15 16 -19 30 -5
22 5 -3 14 1 21 9 15 18 10 18 -24 5 -24 -9 -25 -8 -19 23 6 36 29 77 43 77
14 0 21 -18 10 -25 -5 -3 -10 -18 -10 -33 0 -27 0 -27 21 7 11 19 25 45 29 57
8 19 6 22 -6 17 -15 -5 -33 11 -34 29 0 8 29 0 46 -13z m-105 -26 c-20 -25
-27 -41 -21 -47 6 -6 10 -14 10 -19 0 -5 -7 -1 -16 7 -8 9 -20 16 -25 16 -17
0 -9 -19 12 -30 20 -11 21 -37 2 -33 -12 2 -13 -30 -2 -37 4 -3 4 -12 -1 -20
-8 -13 -10 -13 -10 0 0 18 -59 22 -61 5 -3 -21 -53 -42 -79 -34 -14 5 -55 13
-92 18 -102 14 -202 72 -133 78 11 0 27 2 35 2 8 1 -3 10 -25 20 l-40 18 58 8
c68 9 161 -7 189 -32 18 -16 19 -16 25 5 5 22 26 32 73 34 25 1 60 24 60 39 0
4 -15 9 -32 11 l-33 4 29 9 c21 5 31 5 34 -3 5 -17 27 -15 42 3 7 8 17 15 22
15 5 0 -4 -17 -21 -37z m514 17 c-3 -5 -12 -10 -18 -10 -7 0 -6 4 3 10 19 12
23 12 15 0z m1331 0 c44 -17 126 -120 95 -120 -5 0 -12 11 -15 25 -7 26 -72
82 -83 71 -4 -4 7 -18 25 -32 18 -14 30 -29 27 -34 -3 -4 2 -10 10 -14 24 -9
18 -28 -6 -21 -15 5 -19 4 -15 -4 4 -6 3 -11 -3 -11 -5 0 -12 9 -16 19 -7 22
-65 35 -65 14 0 -7 -6 -13 -14 -13 -8 0 -22 -10 -30 -22 -9 -12 -16 -18 -16
-12 0 6 9 23 20 37 39 49 13 68 -27 20 -17 -21 -22 -24 -23 -11 0 9 7 23 15
31 8 8 11 17 8 21 -3 3 0 13 8 23 12 15 12 16 -4 10 -11 -4 -16 -3 -12 3 6 9
56 27 82 29 6 1 24 -4 39 -9z m-441 -49 c-3 -3 -9 -1 -13 5 -4 6 -16 14 -27
19 -19 7 -19 8 5 14 19 6 27 3 33 -12 4 -11 5 -22 2 -26z m253 34 c6 -3 12 -8
12 -13 0 -12 -46 -3 -79 15 -25 13 -25 14 14 8 22 -4 46 -8 53 -10z m-1100
-15 c65 0 69 -18 5 -23 -37 -3 -31 -4 24 -5 53 -1 79 -7 94 -19 46 -39 124
-113 117 -113 -13 0 -78 42 -78 50 0 5 -10 12 -21 15 -17 6 -18 9 -8 16 10 6
6 11 -16 20 -42 17 -46 17 -79 1 -23 -11 -34 -12 -48 -3 -10 6 -25 11 -33 11
-9 0 -13 5 -10 10 6 10 2 12 -48 15 -33 2 -49 15 -19 15 12 0 22 5 22 11 0 7
9 9 23 5 12 -3 46 -6 75 -6z m670 -32 c-20 -12 -23 -10 -24 18 -2 24 -1 25 17
8 15 -13 17 -19 7 -26z m357 32 c8 -13 -5 -13 -25 0 -13 8 -13 10 2 10 9 0 20
-4 23 -10z m-700 -10 c-8 -13 -85 -53 -91 -47 -3 3 84 56 94 57 2 0 0 -5 -3
-10z m-85 -8 c0 -5 -11 -18 -25 -31 -25 -21 -27 -21 -55 -4 -37 22 -38 30 -2
36 50 7 82 7 82 -1z m555 -2 c19 -8 19 -9 -2 -9 -12 -1 -25 4 -28 9 -7 12 2
12 30 0z m87 -8 c11 -5 14 -12 9 -21 -7 -10 -13 -11 -30 -2 -34 19 -16 38 21
23z m-550 -14 c-7 -7 -12 -22 -12 -34 0 -32 -19 -40 -29 -12 -7 19 -4 26 18
40 30 21 40 23 23 6z m738 2 c0 -5 -2 -10 -4 -10 -3 0 -8 5 -11 10 -3 6 -1 10
4 10 6 0 11 -4 11 -10z m-2105 -10 c3 -5 2 -10 -4 -10 -5 0 -13 5 -16 10 -3 6
-2 10 4 10 5 0 13 -4 16 -10z m1875 -12 c0 -11 -28 -10 -35 1 -3 6 4 9 15 8
11 -1 20 -5 20 -9z m119 -33 c0 -18 -1 -17 -13 5 -8 14 -12 29 -9 33 8 12 23
-14 22 -38z m-1984 5 c8 -13 -5 -13 -25 0 -13 8 -13 10 2 10 9 0 20 -4 23 -10z
m1309 -21 c-3 -5 2 -9 10 -9 9 0 16 -5 16 -11 0 -5 5 -7 10 -4 6 3 10 2 10 -4
0 -15 -18 -23 -25 -11 -3 5 -15 10 -27 10 -13 0 -18 5 -15 14 4 10 0 12 -14 9
-24 -7 -25 13 -2 26 19 10 47 -4 37 -20z m214 -44 c4 -45 4 -46 -17 -33 -16
10 -21 22 -19 48 1 19 3 39 6 43 9 18 25 -14 30 -58z m174 49 c3 14 6 14 28 1
14 -8 33 -17 42 -21 20 -7 52 -53 44 -61 -3 -4 3 -12 14 -20 31 -22 24 -32
-17 -26 -32 5 -36 4 -29 -12 5 -15 4 -16 -9 -5 -22 18 -19 37 8 44 21 6 21 7
-8 21 -16 7 -23 14 -15 14 8 1 0 9 -19 18 -19 9 -29 19 -22 21 6 2 8 8 5 14
-4 5 -13 3 -23 -6 -16 -15 -19 -14 -30 11 -12 27 -12 27 7 10 18 -16 21 -16
24 -3z m230 -16 c-11 -11 -32 -3 -32 12 0 4 9 6 21 3 13 -4 17 -9 11 -15z
m128 2 c9 -16 8 -20 -5 -20 -8 0 -15 2 -15 4 0 2 -3 11 -6 20 -9 23 13 20 26
-4z m-660 -46 c-11 -46 -23 -59 -17 -17 5 30 14 53 22 53 1 0 -1 -16 -5 -36z
m-895 14 c27 -12 32 -27 13 -46 -18 -18 -28 -15 -28 8 0 18 -3 19 -20 10 -17
-9 -20 -8 -20 8 0 34 14 39 55 20z m454 -33 c18 -25 28 -45 22 -45 -5 0 -11 6
-13 12 -3 8 -24 13 -55 13 -28 0 -49 4 -45 9 3 5 0 6 -7 2 -7 -5 -22 0 -34 11
l-22 18 20 -24 c14 -17 16 -25 7 -28 -6 -3 -9 -9 -6 -15 3 -5 -3 -4 -15 3 -21
14 -23 41 -4 60 6 6 17 8 24 3 8 -4 32 -8 55 -9 34 0 40 2 36 17 -7 28 2 21
37 -27z m1006 19 c9 -14 14 -28 11 -32 -3 -3 -6 1 -6 8 0 7 -3 10 -7 7 -9 -9
-33 12 -33 29 0 22 16 16 35 -12z m-634 -1 c13 -16 12 -17 -3 -4 -10 7 -18 15
-18 17 0 8 8 3 21 -13z m514 -3 c10 -11 16 -20 13 -20 -3 0 -13 9 -23 20 -10
11 -16 20 -13 20 3 0 13 -9 23 -20z m-1455 6 c0 -3 -4 -8 -10 -11 -5 -3 -10
-1 -10 4 0 6 5 11 10 11 6 0 10 -2 10 -4z m1291 -52 c-5 -21 -9 -30 -10 -19
-1 24 10 67 15 62 3 -2 0 -22 -5 -43z m729 8 c0 -21 -26 -60 -34 -51 -7 7 16
69 26 69 4 0 8 -8 8 -18z m-1640 -2 c0 -5 -2 -10 -4 -10 -3 0 -8 5 -11 10 -3
6 -1 10 4 10 6 0 11 -4 11 -10z m1500 -8 c15 -14 18 -24 11 -47 l-7 -30 -11
30 c-6 17 -14 38 -18 48 -9 22 1 22 25 -1z m194 3 c3 -8 1 -15 -4 -15 -6 0
-10 7 -10 15 0 8 2 15 4 15 2 0 6 -7 10 -15z m-1659 -31 c22 -23 34 -64 20
-64 -2 0 -20 17 -40 37 -26 27 -32 39 -23 45 18 11 16 11 43 -18z m152 -2 c7
-10 18 -26 24 -37 9 -18 9 -19 -4 -2 -8 9 -21 17 -30 17 -9 0 -22 9 -30 20
-13 18 -15 19 -21 5 -3 -9 -4 -21 -1 -25 3 -5 1 -11 -5 -15 -11 -7 -12 -4 -15
37 -2 26 0 27 34 22 19 -3 41 -13 48 -22z m283 13 c12 -4 15 -15 12 -45 -6
-64 3 -76 33 -46 50 50 77 23 68 -68 -4 -40 -16 -74 -40 -114 -42 -69 -52
-115 -30 -140 21 -23 13 -75 -18 -116 -17 -22 -28 -54 -35 -105 -6 -40 -8 -76
-6 -79 7 -12 -14 -123 -29 -151 -7 -15 -16 -56 -19 -91 -7 -68 -32 -124 -46
-99 -4 8 -10 68 -13 133 -5 86 -11 123 -22 136 -28 31 -19 109 20 183 31 59
34 70 26 110 -4 25 -18 58 -29 75 -32 45 -30 139 4 212 23 48 25 63 20 124 -9
97 7 109 104 81z m-747 -57 c-4 -7 -11 -4 -19 7 -11 14 -11 22 -2 33 10 11 13
10 20 -8 4 -12 5 -27 1 -32z m195 27 c-3 -3 -9 2 -12 12 -6 14 -5 15 5 6 7 -7
10 -15 7 -18z m1392 -26 c0 -5 -4 -9 -8 -9 -9 0 -32 44 -32 58 1 10 40 -38 40
-49z m274 -11 c-5 -7 -2 -9 8 -6 9 4 15 0 15 -8 0 -8 -5 -13 -11 -11 -17 6
-48 65 -40 78 4 8 12 3 21 -15 8 -14 11 -32 7 -38z m-480 33 c10 -11 18 -26
20 -34 1 -8 8 -23 16 -33 14 -16 13 -16 -15 1 -25 15 -23 11 13 -23 23 -23 42
-48 42 -56 0 -7 11 -38 24 -69 14 -30 22 -57 19 -60 -15 -15 -137 169 -135
205 0 9 -10 28 -24 43 -13 14 -24 30 -24 36 0 16 46 10 64 -10z m576 9 c0 -6
-6 -26 -14 -45 -8 -18 -11 -37 -8 -41 4 -4 1 -4 -6 0 -8 5 -9 13 -2 25 5 10 7
21 4 24 -8 8 6 47 17 47 5 0 9 -5 9 -10z m-2550 -55 c0 -2 -9 -3 -19 -2 -11 0
-18 5 -15 9 4 6 34 0 34 -7z m2580 -36 c-7 -22 -4 -33 8 -45 15 -15 14 -16 -8
-9 -40 11 -83 39 -88 55 -4 13 -2 12 14 -1 38 -32 43 -31 54 12 8 29 14 38 20
29 4 -7 4 -26 0 -41z m-1522 0 c2 -13 1 -21 -4 -17 -4 4 -13 3 -21 -3 -10 -9
-13 -6 -13 13 0 45 32 51 38 7z m50 -5 c-10 -10 -28 6 -28 24 0 15 1 15 17 -1
9 -9 14 -19 11 -23z m-1118 17 c0 -5 -7 -11 -14 -14 -10 -4 -13 -1 -9 9 6 15
23 19 23 5z m590 -10 c0 -6 -4 -13 -10 -16 -5 -3 -10 1 -10 9 0 9 5 16 10 16
6 0 10 -4 10 -9z m-660 -45 c0 -3 -4 -8 -10 -11 -5 -3 -10 -1 -10 4 0 6 5 11
10 11 6 0 10 -2 10 -4z m2339 -76 c0 -9 -6 -4 -14 10 -19 33 -19 49 0 24 8
-10 14 -26 14 -34z m411 40 c8 -5 11 -10 5 -10 -5 0 -17 5 -25 10 -8 5 -10 10
-5 10 6 0 17 -5 25 -10z m-1205 -88 c-5 -36 -10 -50 -14 -39 -6 17 -8 16 -29
-3 -33 -31 -28 -2 8 46 16 21 30 48 31 59 0 12 3 15 6 7 3 -7 2 -39 -2 -70z
m545 25 c0 5 -3 13 -7 19 -5 5 4 -4 19 -21 14 -16 25 -31 23 -33 -4 -5 -95 57
-95 64 0 3 14 -4 30 -16 17 -12 30 -17 30 -13z m330 -41 c0 -5 -7 -1 -15 10
-8 10 -14 24 -14 29 0 6 6 1 14 -9 8 -11 15 -24 15 -30z m-1167 -66 c-4 -23 0
-37 14 -53 23 -25 46 -87 37 -96 -4 -3 -9 0 -11 7 -3 6 -13 12 -24 12 -11 0
-16 5 -13 13 3 8 -2 20 -11 27 -18 15 -19 45 -4 89 14 40 20 40 12 1z m227
-156 c0 -3 -5 -15 -12 -27 -6 -12 -15 -38 -19 -57 l-7 -35 -1 36 c-1 35 18 89
32 89 4 0 7 -3 7 -6z m-540 -8 c0 -11 -19 -15 -25 -6 -3 5 1 10 9 10 9 0 16
-2 16 -4z m-155 -176 c8 -7 15 -17 15 -23 0 -5 -8 -3 -18 6 -25 23 -31 21 -42
-8 -5 -14 -14 -25 -20 -25 -16 0 -2 68 21 106 11 17 20 40 21 50 1 11 3 -7 5
-38 2 -33 10 -61 18 -68z m298 53 c-7 -2 -19 -2 -25 0 -7 3 -2 5 12 5 14 0 19
-2 13 -5z m-126 -92 c-2 -24 -4 -26 -19 -17 -10 6 -18 14 -18 18 0 6 28 26 37
28 1 0 1 -13 0 -29z m472 -102 c-3 -98 -3 -101 -25 -96 -20 3 -21 0 -17 -32 3
-23 -1 -43 -10 -56 -20 -26 -32 -13 -16 17 7 12 12 35 11 50 -1 15 7 50 18 78
11 28 20 64 20 80 0 29 9 60 17 60 2 0 3 -45 2 -101z m-155 -204 c-3 -8 8 -32
26 -55 35 -44 35 -61 0 -37 -12 8 -30 13 -41 10 -22 -6 -22 -6 -8 38 6 19 12
40 15 47 2 6 6 12 8 12 3 0 3 -7 0 -15z m518 -100 c4 -39 2 -41 -26 -20 -13
10 -16 20 -11 32 5 10 7 25 6 32 -2 12 0 13 12 3 8 -7 17 -28 19 -47z m-13
-112 c1 -7 -3 -13 -8 -13 -11 0 -21 51 -13 65 6 9 19 -23 21 -52z m-635 8 c3
-5 -1 -12 -10 -15 -22 -9 -24 -8 -24 9 0 16 25 21 34 6z m-54 -21 c8 -5 11
-12 8 -16 -4 -3 -14 1 -23 10 -18 17 -9 21 15 6z m48 -29 c3 -8 -1 -12 -9 -9
-7 2 -15 10 -17 17 -3 8 1 12 9 9 7 -2 15 -10 17 -17z m-23 -76 c11 -2 25 -4
30 -4 16 -2 -18 -21 -38 -21 -11 0 -15 4 -11 12 5 7 2 9 -8 5 -9 -3 -24 1 -35
9 -17 13 -16 14 12 8 17 -3 39 -7 50 -9z m700 -33 c-6 -7 -34 29 -34 43 0 6 9
-1 20 -14 11 -13 17 -26 14 -29z m-940 -4 c-9 -41 -22 -57 -30 -35 -6 14 20
67 32 67 2 0 2 -15 -2 -32z m252 -23 c0 -17 0 -17 -21 -9 -22 8 -20 24 2 24
10 0 19 -7 19 -15z m367 -72 c5 -14 3 -23 -3 -23 -6 0 -11 6 -11 13 0 8 -7 28
-16 45 -8 18 -12 37 -8 44 7 11 15 -6 38 -79z m213 31 c-3 -3 -12 -4 -19 -1
-8 3 -5 6 6 6 11 1 17 -2 13 -5z m-157 -27 c0 -7 -13 -23 -30 -35 -33 -25 -40
-19 -13 10 13 14 13 18 2 18 -11 0 -11 2 1 10 21 14 40 12 40 -3z m189 -18
c-13 -11 -17 -19 -9 -16 56 17 63 16 30 -1 -19 -10 -38 -14 -41 -10 -3 5 -14
6 -25 2 -10 -4 -4 5 15 20 41 31 64 35 30 5z m-609 -18 c0 -6 -10 -17 -22 -25
-21 -15 -21 -16 -3 -36 23 -26 11 -39 -15 -15 -10 9 -26 15 -34 12 -10 -4 -13
-1 -9 9 4 10 -3 14 -28 15 -19 1 -25 3 -14 5 62 13 105 28 105 35 0 5 5 9 10
9 6 0 10 -4 10 -9z m777 -33 c2 -5 1 -8 -4 -7 -16 4 -43 -13 -43 -27 0 -12
-11 -13 -52 -8 -64 8 -69 11 -32 20 16 4 38 13 49 20 20 15 73 15 82 2z m-192
-23 c-20 -15 -40 -24 -42 -21 -6 5 57 46 71 46 5 0 -8 -11 -29 -25z m-170 5
c3 -5 0 -19 -8 -31 -9 -12 -18 -16 -21 -10 -4 5 -2 12 4 16 18 11 10 23 -12
17 -14 -3 -19 -2 -14 6 9 15 43 16 51 2z m76 -48 c5 -13 4 -22 -1 -22 -6 0
-10 6 -10 14 0 29 -20 26 -40 -6 -11 -18 -20 -26 -20 -17 0 20 38 61 52 57 6
-2 15 -14 19 -26z m454 -22 c-3 -5 -10 -10 -16 -10 -5 0 -9 5 -9 10 0 6 7 10
16 10 8 0 12 -4 9 -10z m-1269 -26 c-6 -23 -4 -26 12 -22 11 3 26 2 33 -2 8
-6 -3 -12 -32 -19 -24 -7 -55 -16 -68 -22 -30 -13 -36 -7 -19 23 37 65 87 94
74 42z m254 11 c37 -19 37 -22 0 -22 -17 0 -30 6 -30 13 0 7 -6 15 -12 17 -10
4 -10 6 0 6 7 1 26 -6 42 -14z m690 8 c-8 -3 -18 -11 -22 -17 -5 -7 -8 -4 -8
7 0 11 7 17 23 16 15 0 17 -2 7 -6z m200 -33 c-14 -4 -54 -8 -90 -7 l-65 1 70
6 c103 10 115 10 85 0z m-910 -30 c0 -24 -13 -26 -31 -3 -10 11 -10 14 -1 9 6
-4 12 -2 12 3 0 6 5 11 10 11 6 0 10 -9 10 -20z m300 -22 c0 -25 -3 -29 -10
-18 -13 20 -13 50 0 50 6 0 10 -15 10 -32z"/>
<path d="M3898 8053 c7 -3 16 -2 19 1 4 3 -2 6 -13 5 -11 0 -14 -3 -6 -6z"/>
<path d="M4180 7941 c12 -23 30 -36 30 -22 0 10 -27 41 -36 41 -3 0 0 -9 6
-19z"/>
<path d="M4423 7313 c-18 -7 -16 -16 6 -30 17 -11 19 -10 16 7 -4 23 5 26 25
8 12 -11 12 -10 1 5 -14 17 -25 20 -48 10z"/>
<path d="M4830 7175 c7 -8 17 -15 22 -15 6 0 5 7 -2 15 -7 8 -17 15 -22 15 -6
0 -5 -7 2 -15z"/>
<path d="M2495 6710 c-3 -6 1 -7 9 -4 18 7 21 14 7 14 -6 0 -13 -4 -16 -10z"/>
<path d="M4272 6390 c0 -14 2 -19 5 -12 2 6 2 18 0 25 -3 6 -5 1 -5 -13z"/>
<path d="M3274 6549 c-3 -6 -1 -16 5 -22 8 -8 11 -5 11 11 0 24 -5 28 -16 11z"/>
<path d="M3057 6185 c3 -8 11 -15 19 -15 8 0 30 -34 49 -75 20 -42 40 -73 45
-70 10 6 -9 57 -39 106 -21 34 -85 80 -74 54z"/>
<path d="M4531 5695 c0 -5 6 -21 14 -35 8 -14 14 -20 14 -15 0 6 -6 21 -14 35
-8 14 -14 21 -14 15z"/>
<path d="M4018 5980 c-7 -24 -3 -38 8 -28 3 4 4 17 2 30 l-3 23 -7 -25z"/>
<path d="M3980 5840 c-6 -11 -8 -20 -6 -20 3 0 10 9 16 20 6 11 8 20 6 20 -3
0 -10 -9 -16 -20z"/>
<path d="M4625 4828 c-11 -35 -9 -52 8 -56 14 -3 17 4 17 32 0 35 -16 50 -25
24z"/>
<path d="M4916 4927 c3 -10 9 -15 12 -12 3 3 0 11 -7 18 -10 9 -11 8 -5 -6z"/>
<path d="M2848 4638 c-14 -18 -33 -49 -43 -68 -9 -19 -29 -50 -42 -68 -14 -18
-23 -35 -21 -37 4 -5 88 100 88 110 0 4 8 19 18 33 19 27 34 62 28 62 -2 0
-15 -15 -28 -32z"/>
<path d="M3000 4580 c0 -5 5 -10 10 -10 6 0 10 5 10 10 0 6 -4 10 -10 10 -5 0
-10 -4 -10 -10z"/>
<path d="M4523 4413 c-13 -8 -23 -21 -23 -27 0 -7 3 -8 8 0 4 5 18 18 32 27
13 9 20 17 15 16 -6 0 -20 -7 -32 -16z"/>
<path d="M2877 4379 c4 -13 8 -18 11 -10 2 7 -1 18 -6 23 -8 8 -9 4 -5 -13z"/>
<path d="M3979 4120 c13 -11 33 -20 45 -20 16 1 11 6 -18 20 -50 25 -58 25
-27 0z"/>
<path d="M5608 3866 c12 -15 20 -32 17 -36 -2 -4 4 -15 15 -25 11 -10 20 -23
20 -30 0 -6 11 -33 25 -61 23 -46 24 -47 18 -14 -8 50 -56 141 -89 170 l-28
25 22 -29z"/>
<path d="M5722 3595 c0 -11 4 -33 8 -50 7 -27 8 -27 8 -5 0 14 -4 36 -8 50 -6
20 -8 21 -8 5z"/>
<path d="M2200 3836 c0 -2 7 -7 16 -10 8 -3 12 -2 9 4 -6 10 -25 14 -25 6z"/>
<path d="M5395 3660 c-3 -5 1 -10 9 -10 9 0 16 5 16 10 0 6 -4 10 -9 10 -6 0
-13 -4 -16 -10z"/>
<path d="M5410 3620 c-8 -5 -12 -11 -9 -14 2 -3 11 -1 19 4 8 5 12 11 9 14 -2
3 -11 1 -19 -4z"/>
<path d="M5404 3559 c1 -16 5 -29 9 -29 4 0 11 0 16 0 5 0 11 7 14 14 4 11 1
13 -11 9 -14 -6 -15 -4 -4 9 10 13 9 16 -6 20 -16 4 -19 0 -18 -23z"/>
<path d="M5410 3500 c0 -5 7 -10 16 -10 8 0 12 5 9 10 -3 6 -10 10 -16 10 -5
0 -9 -4 -9 -10z"/>
<path d="M2326 3775 c-3 -8 -1 -15 4 -15 6 0 10 7 10 15 0 8 -2 15 -4 15 -2 0
-6 -7 -10 -15z"/>
<path d="M3118 2363 c-10 -11 -18 -28 -18 -37 0 -16 -7 -18 -57 -13 -32 3 -80
12 -108 20 -50 15 -71 13 -46 -3 12 -7 12 -9 0 -12 -8 -3 -2 -3 13 -1 16 3 43
0 60 -6 56 -17 148 -23 148 -10 0 7 7 20 16 30 9 10 14 25 12 34 -3 16 -5 15
-20 -2z"/>
<path d="M3160 2340 c-11 -11 -20 -26 -20 -32 0 -7 7 -3 15 9 8 12 25 23 38
25 19 3 20 4 4 10 -11 5 -24 1 -37 -12z"/>
<path d="M1308 7659 c24 -11 46 -18 49 -15 6 6 -24 19 -67 30 -14 3 -5 -4 18
-15z"/>
<path d="M2660 7220 c0 -5 5 -10 10 -10 6 0 10 5 10 10 0 6 -4 10 -10 10 -5 0
-10 -4 -10 -10z"/>
<path d="M2630 7211 c0 -5 6 -14 14 -20 12 -10 13 -8 9 8 -5 21 -23 30 -23 12z"/>
<path d="M2710 7211 c0 -6 4 -13 10 -16 6 -3 7 1 4 9 -7 18 -14 21 -14 7z"/>
<path d="M2551 5803 c-1 -6 -4 -20 -7 -30 -5 -17 -5 -17 6 0 6 10 9 23 6 30
-3 9 -5 9 -5 0z"/>
<path d="M2484 5698 l-19 -23 23 19 c21 18 27 26 19 26 -2 0 -12 -10 -23 -22z"/>
<path d="M2400 5627 c-31 -28 -65 -67 -59 -67 3 0 25 20 49 45 46 47 52 60 10
22z"/>
<path d="M2406 5552 c-3 -5 1 -9 9 -9 8 0 12 4 9 9 -3 4 -7 8 -9 8 -2 0 -6 -4
-9 -8z"/>
<path d="M2280 5509 l-45 -41 42 32 c37 27 61 51 51 50 -2 0 -23 -19 -48 -41z"/>
<path d="M5439 5493 c32 -48 136 -134 224 -188 43 -26 80 -45 83 -42 5 5 -93
67 -106 67 -12 0 -115 87 -175 147 -35 35 -42 39 -26 16z"/>
<path d="M2194 5418 l-29 -33 33 29 c30 28 37 36 29 36 -2 0 -16 -15 -33 -32z"/>
<path d="M2143 5358 c-43 -57 -66 -91 -58 -86 12 7 78 98 72 98 -3 0 -9 -6
-14 -12z"/>
<path d="M2226 5282 c-2 -4 -1 -14 5 -22 7 -12 9 -10 9 8 0 23 -5 28 -14 14z"/>
<path d="M5475 5255 c3 -17 -1 -53 -10 -80 -8 -28 -15 -69 -15 -92 0 -43 26
-123 40 -123 25 0 20 236 -6 295 l-14 30 5 -30z"/>
<path d="M5770 5247 c0 -18 258 -279 271 -275 5 2 -54 66 -131 143 -77 77
-140 136 -140 132z"/>
<path d="M2032 5210 c-22 -30 -117 -216 -141 -277 -7 -18 -11 -38 -9 -45 3 -7
19 24 37 67 18 44 57 126 87 183 29 56 52 102 51 102 -2 0 -13 -13 -25 -30z"/>
<path d="M2170 5134 c0 -8 5 -12 10 -9 6 3 10 10 10 16 0 5 -4 9 -10 9 -5 0
-10 -7 -10 -16z"/>
<path d="M6086 4925 c32 -46 28 -41 115 -131 55 -58 71 -83 99 -154 17 -47 40
-96 49 -110 10 -14 21 -33 24 -42 6 -18 27 -25 27 -10 0 4 -11 23 -24 42 -13
19 -27 46 -31 60 -28 90 -91 178 -244 339 l-44 46 29 -40z"/>
<path d="M5425 4579 c-4 -6 -5 -12 -2 -15 2 -3 7 2 10 11 7 17 1 20 -8 4z"/>
<path d="M2114 4254 c-42 -75 -83 -171 -84 -194 0 -8 24 38 54 103 30 65 60
125 67 133 6 8 9 17 6 20 -3 3 -22 -25 -43 -62z"/>
<path d="M6355 3497 c22 -19 42 -33 44 -31 5 4 -36 40 -64 55 -11 7 -2 -4 20
-24z"/>
<path d="M5400 2320 c0 -5 4 -10 9 -10 6 0 13 5 16 10 3 6 -1 10 -9 10 -9 0
-16 -4 -16 -10z"/>
<path d="M2490 2180 c0 -5 5 -10 10 -10 6 0 10 5 10 10 0 6 -4 10 -10 10 -5 0
-10 -4 -10 -10z"/>
<path d="M4923 1870 c3 -10 2 -18 -2 -17 -7 2 -11 -7 -11 -24 0 -5 4 -8 9 -5
5 4 20 -10 32 -31 13 -20 25 -31 27 -25 2 8 11 8 29 1 37 -14 41 -3 10 25 -15
14 -27 29 -27 33 0 13 -49 63 -62 63 -5 0 -8 -9 -5 -20z m54 -52 c-3 -8 -6 -5
-6 6 -1 11 2 17 5 13 3 -3 4 -12 1 -19z"/>
<path d="M3453 900 c0 -25 2 -35 4 -22 2 12 2 32 0 45 -2 12 -4 2 -4 -23z"/>
<path d="M3921 564 c0 -11 3 -14 6 -6 3 7 2 16 -1 19 -3 4 -6 -2 -5 -13z"/>
<path d="M2954 279 c-18 -20 -18 -21 1 -35 11 -8 29 -14 40 -13 39 3 56 -1 50
-11 -3 -6 1 -7 9 -4 34 13 4 39 -49 43 -45 3 -50 5 -40 20 9 16 86 13 136 -4
59 -20 89 -37 84 -45 -2 -4 2 -7 10 -7 24 0 17 17 -10 27 -14 5 -25 13 -25 18
0 12 -92 32 -144 32 -31 0 -48 -6 -62 -21z"/>
<path d="M3460 290 c-8 -5 -10 -10 -5 -10 6 0 17 5 25 10 8 5 11 10 5 10 -5 0
-17 -5 -25 -10z"/>
<path d="M3408 233 c6 -2 18 -2 25 0 6 3 1 5 -13 5 -14 0 -19 -2 -12 -5z"/>
<path d="M3227 219 c7 -7 15 -10 18 -7 3 3 -2 9 -12 12 -14 6 -15 5 -6 -5z"/>
</g>
</svg>
