<?xml version="1.0" standalone="no"?>
<!DOCTYPE svg PUBLIC "-//W3C//DTD SVG 20010904//EN"
 "http://www.w3.org/TR/2001/REC-SVG-20010904/DTD/svg10.dtd">
<svg version="1.0" xmlns="http://www.w3.org/2000/svg"
 width="640.000000pt" height="940.000000pt" viewBox="0 0 640.000000 940.000000"
 preserveAspectRatio="xMidYMid meet">
<metadata>
Created by potrace 1.16, written by Peter Selinger 2001-2019
</metadata>
<g transform="translate(0.000000,940.000000) scale(0.100000,-0.100000)"
fill="#000000" stroke="none">
<path d="M3790 8609 c-70 -8 -231 -54 -291 -85 -25 -12 -66 -38 -90 -56 -24
-19 -74 -48 -110 -65 -36 -18 -72 -40 -80 -50 -11 -13 -5 -12 24 6 59 36 66
19 8 -22 -34 -24 -51 -44 -51 -58 0 -12 -17 -37 -37 -55 -21 -20 -31 -34 -22
-34 22 -1 -29 -25 -106 -50 -38 -13 -76 -28 -82 -33 -16 -12 -16 3 0 24 7 8
56 48 110 87 53 40 97 74 97 77 0 3 -38 -22 -85 -54 -85 -59 -134 -100 -189
-159 -28 -30 -28 -31 -5 -25 13 3 29 10 36 15 30 23 289 78 265 57 -4 -4 -38
-23 -77 -43 -57 -29 -73 -42 -86 -73 -14 -32 -27 -42 -75 -62 -33 -13 -66 -30
-75 -37 -8 -8 -21 -14 -28 -14 -6 0 -31 -20 -54 -44 -51 -53 -92 -80 -107 -71
-7 4 -67 -50 -146 -129 -74 -76 -134 -133 -134 -129 1 13 82 128 121 170 20
22 69 66 110 99 98 78 161 146 211 229 4 6 -76 -71 -176 -170 -186 -182 -253
-261 -281 -328 -18 -42 -20 -159 -4 -189 15 -28 0 -80 -53 -182 -22 -43 -35
-76 -29 -72 17 11 84 136 101 190 14 42 21 50 44 53 21 3 26 1 20 -9 -4 -7 2
-4 14 6 15 13 22 15 22 6 0 -10 3 -10 15 0 8 7 13 16 10 20 -2 4 4 17 14 29
18 20 20 21 36 5 14 -14 18 -15 25 -3 5 7 11 11 14 8 12 -12 -27 -51 -45 -46
-29 8 -30 -6 -5 -38 l23 -29 29 23 c31 24 33 30 14 41 -8 5 -6 9 5 14 14 5 16
2 12 -14 -3 -13 1 -21 15 -26 16 -5 18 -8 7 -15 -10 -6 -5 -9 16 -9 29 -1 29
-2 7 -11 -30 -11 -56 -38 -48 -47 4 -3 11 0 16 8 7 11 11 11 24 1 8 -7 19 -10
24 -7 14 9 35 -45 22 -58 -15 -15 -12 -34 8 -39 15 -4 15 -5 0 -6 -9 0 -20 4
-23 9 -13 21 -34 9 -45 -26 -7 -22 -39 -61 -81 -101 -38 -37 -69 -74 -69 -84
0 -22 -97 -53 -147 -47 -18 2 -33 0 -33 -4 0 -14 -18 -9 -24 8 -3 8 -2 13 2
10 5 -3 22 -1 38 4 16 4 23 9 16 9 -8 1 -10 6 -6 14 5 8 2 8 -9 -2 -15 -12
-17 -11 -17 4 0 15 -3 15 -15 5 -20 -16 -30 -7 -49 45 l-15 40 0 -46 c-1 -25
4 -50 10 -56 8 -8 8 -13 0 -17 -6 -4 -11 -2 -11 5 0 8 -4 8 -15 -1 -17 -14
-18 -72 -3 -102 5 -10 19 -18 33 -18 21 0 23 -4 20 -37 -5 -61 5 -92 36 -110
22 -13 26 -20 17 -30 -9 -11 -16 -9 -37 10 -14 14 -50 36 -79 51 -30 14 -94
60 -143 101 -49 42 -89 70 -89 64 0 -15 61 -72 100 -96 17 -9 30 -23 30 -29 0
-6 10 -18 22 -26 42 -28 1 -27 -53 1 -46 25 -58 37 -84 90 -17 34 -51 82 -75
107 -50 50 -134 104 -165 104 -51 0 -150 89 -141 126 5 20 -1 35 -62 147 -38
69 -42 127 -12 157 24 24 25 30 5 30 -17 0 -20 27 -5 50 5 8 5 17 1 20 -13 8
-91 161 -91 178 0 23 14 6 44 -53 14 -27 26 -43 26 -35 0 23 -59 112 -70 105
-14 -9 -12 -63 4 -107 l13 -36 -34 35 c-18 20 -36 33 -40 30 -3 -4 3 -15 13
-24 26 -24 64 -74 64 -84 0 -18 -32 -8 -37 11 -3 11 -10 20 -15 20 -5 0 -6 -4
-3 -10 3 -5 -6 -12 -20 -16 -50 -13 -154 82 -156 142 0 27 -1 28 -11 8 -10
-21 10 -72 44 -115 20 -24 102 -69 126 -69 12 0 22 -6 22 -13 0 -8 9 -22 20
-32 11 -10 20 -28 20 -39 0 -17 -2 -18 -10 -6 -8 12 -10 12 -16 -3 -3 -9 1
-28 9 -41 9 -13 13 -33 11 -44 -3 -11 -1 -23 5 -26 6 -4 11 -20 11 -37 0 -16
9 -38 21 -50 15 -15 20 -29 16 -49 -3 -15 -1 -33 6 -40 17 -18 -48 -5 -150 30
-46 16 -85 25 -88 21 -6 -11 -81 3 -100 19 -19 16 -56 90 -45 90 4 0 19 -15
33 -34 15 -19 41 -39 59 -45 29 -10 27 -6 -27 41 -32 29 -78 68 -101 85 -23
18 -52 46 -64 63 -22 31 -50 40 -50 16 0 -8 9 -18 21 -21 11 -4 18 -9 16 -12
-12 -11 -47 10 -47 27 0 17 -4 18 -31 8 -24 -8 -40 -7 -75 7 -24 9 -44 23 -44
31 0 8 -4 14 -9 14 -5 0 -11 23 -15 50 -10 74 -14 80 -50 79 -31 -2 -31 -2 -3
-6 40 -6 28 -28 -15 -28 -27 0 -34 3 -27 12 8 9 2 9 -26 0 -30 -9 -38 -8 -52
6 -13 13 -14 20 -5 29 9 9 17 7 34 -8 21 -17 21 -16 -1 9 -14 15 -26 35 -27
44 -2 9 -11 28 -22 42 -28 39 -73 39 -123 2 -23 -16 -47 -27 -55 -24 -8 3 -17
-2 -20 -11 -4 -9 -14 -16 -23 -14 -15 2 -91 -64 -91 -81 0 -4 -18 -16 -41 -26
-86 -39 -90 -87 -14 -168 46 -49 58 -57 80 -51 14 3 25 12 25 19 0 7 16 33 35
59 29 36 42 46 65 46 35 0 38 -13 13 -65 -14 -30 -15 -39 -4 -57 9 -15 10 -23
2 -31 -14 -14 -14 -50 0 -64 8 -8 6 -19 -5 -42 -11 -21 -14 -43 -10 -70 4 -24
2 -41 -5 -45 -15 -10 -14 -63 2 -69 9 -3 9 -7 -1 -19 -9 -12 -10 -18 -2 -23 8
-5 5 -14 -9 -29 -47 -50 -51 -130 -9 -196 12 -19 22 -38 23 -42 1 -17 15 -19
15 -1 0 11 8 31 18 44 34 47 42 69 42 117 0 26 -6 57 -14 68 -20 28 -23 68 -7
87 10 12 10 27 3 62 -5 26 -6 48 -1 51 12 7 11 52 -1 56 -6 2 -2 19 10 40 16
31 18 42 8 63 -9 19 -9 28 0 37 15 15 16 64 2 73 -5 3 -10 12 -10 18 0 7 11
-1 25 -17 24 -27 27 -29 61 -18 36 11 38 10 93 -43 146 -138 144 -137 171
-131 27 5 75 -8 118 -32 12 -7 27 -10 33 -7 5 4 29 -13 52 -38 30 -33 54 -48
87 -56 82 -20 184 -53 235 -76 139 -63 269 -129 294 -151 16 -13 33 -24 38
-24 11 0 63 -53 63 -64 0 -4 10 -22 22 -38 21 -30 111 -78 146 -78 10 0 42
-25 72 -56 30 -30 93 -83 140 -116 47 -34 114 -87 150 -117 36 -31 81 -68 101
-83 34 -26 37 -32 49 -110 18 -130 39 -206 65 -249 14 -21 25 -41 25 -44 0 -3
9 -14 21 -26 14 -14 17 -24 11 -32 -6 -7 -17 -38 -25 -70 -12 -46 -24 -66 -59
-97 -23 -22 -48 -38 -55 -36 -7 3 -10 -1 -7 -8 6 -16 -125 -188 -137 -180 -5
3 -6 -3 -2 -12 5 -13 2 -16 -9 -12 -10 4 -21 -5 -32 -25 l-17 -32 20 24 c26
29 26 29 -4 -44 -13 -33 -25 -72 -25 -87 0 -19 -7 -29 -22 -34 -21 -6 -21 -8
-5 -13 18 -7 18 -8 0 -29 -10 -12 -32 -25 -49 -28 -27 -5 -32 -3 -37 18 -13
47 -7 81 21 113 15 19 49 63 77 99 27 36 54 66 59 66 4 0 2 8 -5 17 -11 13
-11 15 -1 9 16 -10 44 23 36 43 -4 12 -2 12 13 0 9 -8 14 -9 10 -2 -4 7 2 20
14 31 15 15 17 22 8 27 -8 5 -10 4 -5 -3 4 -7 2 -12 -5 -12 -16 0 -212 -195
-234 -234 -18 -30 -18 -31 0 -16 18 14 18 13 -1 -19 -10 -18 -29 -43 -40 -56
-32 -35 -79 -122 -102 -190 -40 -115 -102 -353 -102 -389 0 -42 -19 -49 -22
-8 -2 35 -1 52 5 137 4 51 3 62 -4 40 -15 -50 -23 -190 -11 -210 9 -18 42 -30
42 -17 9 134 16 146 97 178 37 14 49 15 87 4 54 -15 138 -5 159 18 8 9 20 35
27 57 38 121 53 128 35 18 -12 -76 -6 -235 10 -275 5 -12 -6 -32 -33 -65 -37
-46 -106 -153 -98 -153 4 0 57 72 103 140 31 44 179 171 263 225 91 58 318
177 331 173 5 -2 -40 -30 -100 -63 -61 -32 -113 -65 -115 -72 -3 -7 -15 -13
-26 -13 -35 0 -303 -232 -354 -306 -75 -108 -106 -159 -106 -172 0 -8 -11 -27
-25 -44 -14 -16 -25 -38 -25 -48 0 -10 -11 -42 -25 -72 -31 -66 -33 -98 -5
-91 10 3 26 16 35 29 8 13 20 24 26 24 7 0 5 -10 -5 -24 -32 -50 -56 -131 -56
-193 l0 -63 42 -21 c38 -19 74 -47 66 -50 -4 -2 -38 -7 -78 -13 -19 -2 -37 -5
-40 -6 -3 -1 -8 -2 -12 -1 -11 1 -10 -13 3 -46 9 -24 8 -26 -4 -13 -41 43 -61
192 -45 340 5 50 5 58 -3 35 -6 -16 -11 -95 -12 -175 -2 -144 -2 -147 28 -205
27 -53 37 -63 90 -89 54 -27 70 -30 155 -30 81 0 105 4 165 28 94 38 123 53
168 88 28 23 35 25 30 11 -3 -10 -10 -23 -14 -29 -12 -15 -69 -202 -69 -225 0
-10 -14 -79 -30 -154 -32 -142 -63 -235 -83 -247 -7 -4 -13 -43 -15 -97 -4
-83 -2 -94 27 -155 18 -36 47 -81 66 -101 18 -20 41 -47 49 -60 18 -28 120
-99 173 -121 19 -8 33 -17 31 -19 -7 -7 -113 -7 -131 0 -26 11 -22 -22 5 -36
12 -6 30 -19 40 -28 10 -10 40 -23 68 -30 80 -20 69 -31 -24 -25 -79 6 -88 5
-130 -20 -25 -14 -48 -31 -52 -37 -4 -6 14 0 38 15 39 22 54 26 109 23 35 -2
75 -9 89 -15 25 -11 25 -11 -7 -11 -17 -1 -35 -6 -38 -12 -4 -5 -31 -21 -60
-34 -46 -20 -59 -22 -89 -13 -19 6 -43 7 -53 3 -15 -7 -13 -9 12 -15 30 -6 29
-6 -12 -14 -50 -9 -59 -28 -10 -21 32 5 31 5 -8 -13 -22 -11 -47 -28 -55 -38
-11 -15 -11 -16 0 -7 22 20 35 15 17 -5 -10 -10 -14 -21 -11 -25 9 -8 -23 -57
-37 -57 -7 0 -5 10 4 24 9 13 14 34 12 46 -2 12 2 35 10 51 17 32 18 39 8 39
-17 0 -53 -68 -53 -101 0 -19 -7 -43 -15 -53 -8 -11 -15 -30 -15 -42 0 -21 4
-23 38 -19 20 2 40 4 45 4 4 1 28 20 52 42 47 43 62 44 23 1 -22 -24 -22 -24
-2 -14 12 6 24 8 28 5 3 -3 14 1 23 9 35 31 130 78 246 122 l119 45 -7 -42
c-5 -36 -4 -39 6 -22 7 11 19 26 26 33 7 7 13 19 14 25 1 20 18 -26 18 -51 1
-13 -10 -40 -24 -60 -28 -41 -33 -61 -10 -42 9 8 15 9 15 2 0 -6 -5 -14 -10
-17 -6 -4 -8 -10 -5 -15 7 -11 -16 -50 -29 -50 -8 0 -5 18 10 54 5 13 4 17 -4
12 -7 -4 -9 5 -6 31 4 25 3 34 -4 25 -15 -22 -14 -133 3 -182 l15 -45 -4 42
c-4 41 15 86 30 71 4 -4 2 -13 -4 -20 -5 -7 -10 -30 -10 -50 0 -20 -3 -42 -8
-49 -4 -7 -3 -10 4 -5 6 3 16 -3 23 -15 10 -19 9 -21 -6 -15 -12 4 -16 2 -12
-8 13 -33 58 -96 76 -105 17 -10 19 -5 26 62 3 39 12 83 19 95 12 23 14 21 50
-52 42 -85 78 -120 113 -111 57 14 83 -40 52 -109 -22 -48 -24 -113 -5 -138 7
-10 33 -27 58 -38 30 -13 47 -28 51 -42 3 -13 17 -54 32 -93 18 -48 24 -80 20
-102 -3 -19 1 -47 10 -69 17 -41 20 -88 5 -79 -11 7 -2 -23 13 -43 7 -8 6 -21
-2 -38 -6 -14 -11 -33 -11 -43 0 -11 -6 -21 -12 -24 -7 -3 -24 -25 -37 -51
-18 -35 -22 -54 -17 -81 6 -31 10 -35 22 -24 8 6 17 9 21 6 9 -9 -25 -57 -42
-58 -8 -1 -19 -3 -25 -4 -5 -1 -14 -3 -19 -4 -14 -2 -61 -49 -61 -61 0 -6 10
1 23 15 12 14 39 30 60 35 l39 8 -21 -22 c-12 -12 -19 -25 -16 -28 3 -3 -1
-11 -10 -18 -9 -7 -15 -8 -15 -2 0 7 -10 6 -31 -1 -25 -10 -30 -16 -26 -36 3
-14 -4 -41 -14 -60 -10 -20 -19 -45 -19 -56 0 -11 -20 -41 -43 -67 l-43 -46
28 -4 c23 -4 25 -2 16 10 -10 11 -4 21 30 52 33 31 42 35 42 21 0 -26 8 -30
40 -21 35 10 44 -5 22 -38 -10 -15 -24 -22 -48 -22 -18 0 -36 -4 -39 -10 -3
-5 -1 -10 5 -10 7 0 10 -7 6 -15 -7 -19 3 -19 28 0 11 8 29 15 40 14 17 0 15
-3 -9 -14 -16 -8 -24 -14 -17 -15 17 0 72 31 72 41 0 4 -10 5 -22 2 -21 -5
-21 -4 -8 10 20 21 138 68 145 57 6 -10 45 -1 45 11 0 4 9 13 20 19 16 9 20 8
20 -5 0 -27 -47 -64 -89 -71 -23 -4 -41 -10 -41 -15 0 -5 -5 -8 -11 -7 -6 2
-13 -2 -16 -8 -5 -16 33 -24 47 -10 8 8 10 7 5 -5 -6 -15 -1 -16 42 -8 32 6
49 6 51 -1 3 -8 8 -7 17 0 10 8 19 8 34 0 14 -7 21 -7 21 0 0 5 19 10 43 10
31 0 38 -3 27 -10 -12 -8 -11 -9 5 -7 11 2 27 7 35 10 8 3 33 11 55 18 59 18
78 34 92 81 15 51 18 221 3 198 -6 -9 -10 -10 -10 -3 0 6 -11 25 -25 42 -19
22 -24 36 -19 55 8 35 21 33 29 -5 4 -17 9 -28 12 -25 3 2 -1 22 -8 43 -15 44
-13 70 8 120 11 27 17 33 23 23 5 -8 12 -11 16 -8 14 15 66 -72 89 -149 28
-92 111 -174 182 -180 19 -1 60 -7 91 -13 31 -6 102 -13 158 -17 129 -8 194
10 218 62 23 47 20 80 -9 112 -15 17 -23 21 -19 11 5 -14 1 -18 -17 -17 -13 1
-37 -3 -52 -10 -53 -21 -64 -13 -24 20 39 32 49 54 19 45 -10 -4 -27 1 -38 9
-10 8 -33 15 -51 15 -17 0 -38 7 -47 15 -8 8 -23 15 -33 15 -17 1 -17 1 0 11
13 8 24 7 42 -5 33 -21 56 -21 26 1 -14 9 -49 21 -78 27 -60 12 -72 28 -27 36
19 4 34 0 42 -10 8 -8 1 10 -15 40 -26 49 -29 64 -27 130 5 127 4 149 -5 173
-12 31 15 135 40 156 11 10 23 39 30 74 22 121 125 300 210 364 l50 38 -5 57
c-3 32 -1 60 4 63 6 3 7 -1 4 -9 -4 -11 0 -16 10 -16 9 0 16 4 16 8 0 5 11 14
24 20 l24 11 -28 91 c-16 50 -32 99 -36 108 -7 16 -6 133 1 141 2 2 11 -4 20
-12 9 -10 11 -18 5 -22 -5 -3 -10 -14 -9 -23 0 -11 3 -12 6 -4 7 18 20 15 26
-8 3 -11 0 -18 -6 -17 -6 1 -12 -7 -14 -18 -3 -16 -2 -17 6 -5 8 11 11 -3 12
-55 1 -69 15 -152 18 -110 1 17 7 14 32 -17 31 -38 49 -48 49 -28 0 6 -9 20
-19 32 -24 25 -44 78 -30 78 5 0 9 -6 9 -14 0 -8 7 -16 15 -20 8 -3 14 -9 13
-13 -2 -4 0 -9 5 -10 18 -7 27 -2 27 15 1 14 4 13 20 -7 11 -13 20 -18 20 -12
0 25 18 8 44 -44 15 -31 38 -68 50 -83 13 -15 31 -40 40 -57 15 -27 17 -28 11
-5 -3 14 -8 39 -11 55 -3 17 -15 54 -25 83 l-19 52 26 -6 26 -7 -7 52 c-4 33
-2 67 5 94 l13 42 57 -55 c40 -39 63 -70 74 -103 25 -75 55 -129 94 -170 37
-38 52 -46 52 -26 0 5 -4 8 -9 5 -11 -7 -20 39 -11 54 6 9 9 9 13 -1 10 -26 7
14 -7 78 -7 34 -11 65 -8 67 9 10 42 -15 42 -32 0 -14 2 -14 14 3 15 23 18 41
5 38 -4 -2 -6 3 -3 11 6 16 -21 66 -82 154 -47 67 -76 121 -89 162 -7 22 -6
23 8 12 10 -8 35 -12 69 -10 l53 4 -52 8 c-34 6 -53 13 -53 22 0 8 7 14 15 14
9 0 25 9 37 20 12 11 18 20 14 20 -5 0 8 18 28 40 42 46 44 59 15 84 -16 13
-30 16 -58 11 l-36 -6 45 26 c25 15 52 30 60 34 8 4 25 23 38 41 35 52 28 141
-21 275 -15 40 -23 53 -25 39 -2 -11 6 -43 16 -70 11 -27 25 -82 32 -122 11
-60 11 -77 0 -97 -9 -17 -17 -22 -25 -15 -7 5 -14 8 -16 6 -2 -3 -3 12 -1 32
2 20 -3 55 -11 77 -12 34 -18 40 -41 37 -14 -1 -26 1 -26 7 0 5 -11 12 -25 15
-31 8 -31 16 0 52 19 22 25 40 25 76 0 36 4 50 19 57 15 8 22 6 35 -12 17 -22
17 -22 13 10 -3 26 6 44 45 95 27 35 67 99 89 143 39 79 42 91 75 305 l6 34
28 -61 c55 -118 72 -189 77 -325 3 -71 9 -128 12 -128 25 0 44 36 67 125 21
81 27 123 27 220 0 104 -13 242 -29 298 -8 26 16 20 63 -16 23 -17 95 -73 160
-123 111 -85 239 -179 273 -199 13 -8 13 -7 1 8 -27 33 2 16 56 -33 94 -86 93
-86 93 24 l0 96 -51 40 c-28 22 -57 40 -65 40 -9 0 -13 4 -10 9 3 5 -18 29
-48 54 -29 25 -69 61 -88 79 -19 18 -46 41 -60 50 -14 9 -28 26 -31 38 l-5 21
31 -20 c35 -22 114 -89 161 -137 17 -17 61 -52 99 -77 52 -36 67 -43 67 -29 0
17 -99 102 -118 102 -5 0 -36 24 -69 53 -33 30 -93 79 -134 109 -41 31 -120
95 -177 142 -62 53 -107 84 -115 80 -6 -4 -9 -3 -4 1 4 5 -10 26 -30 48 -25
26 -34 41 -25 44 32 12 129 84 140 105 20 37 54 48 93 30 22 -9 69 -15 129
-16 91 -1 98 1 172 37 93 46 138 93 138 143 0 26 -4 35 -13 31 -10 -4 -13 2
-9 19 3 19 1 23 -11 18 -8 -3 -29 2 -46 11 -34 17 -56 12 -47 -11 3 -8 1 -14
-4 -14 -6 0 -10 8 -10 17 0 9 -8 25 -17 36 -18 19 -17 20 7 8 20 -10 19 -7 -9
18 -23 21 -35 41 -36 64 -6 69 -30 105 -91 134 -40 19 -67 41 -88 71 -38 53
-26 74 25 43 41 -25 49 -26 49 -6 0 35 -37 69 -108 102 -69 31 -74 36 -100 90
-26 57 -28 63 -31 83 -1 13 -61 80 -71 80 -5 0 -6 -9 -3 -20 9 -34 -16 -23
-78 37 -33 31 -70 57 -82 59 -42 4 -121 73 -162 140 -22 35 -45 66 -52 68 -8
4 -6 -4 5 -22 19 -28 72 -114 102 -168 10 -17 21 -50 25 -75 3 -24 13 -64 20
-89 24 -80 28 -159 10 -230 -20 -79 -56 -170 -67 -170 -4 0 -8 -8 -8 -17 0
-10 -7 -27 -15 -37 -8 -11 -15 -32 -15 -47 0 -16 -11 -40 -25 -55 -13 -14 -22
-31 -18 -37 4 -6 1 -7 -6 -3 -7 5 -10 14 -7 22 3 8 0 11 -8 8 -9 -3 -12 4 -11
25 1 17 -2 28 -7 25 -4 -3 -8 13 -8 36 0 22 -6 56 -14 75 -8 19 -11 37 -6 40
11 7 1 35 -12 35 -6 0 -8 -7 -4 -15 3 -8 0 -15 -6 -15 -19 0 1 118 37 224 19
54 32 102 30 106 -2 3 2 42 10 86 23 134 8 210 -54 279 -15 17 -33 49 -40 72
-6 23 -17 45 -23 49 -7 5 -9 2 -5 -8 5 -15 -9 -38 -25 -38 -12 0 -10 84 3 97
8 8 8 17 0 31 -14 26 -14 45 -1 37 13 -8 13 -2 -4 37 -17 41 -37 106 -82 268
-21 78 -32 106 -28 75 3 -27 10 -58 15 -67 5 -9 9 -23 9 -30 0 -7 -16 16 -35
51 -26 48 -36 80 -38 123 -3 42 0 55 8 48 8 -6 11 11 11 64 0 55 -3 73 -12 69
-7 -2 -18 5 -24 18 -8 14 -15 18 -19 11 -4 -7 -19 15 -35 49 -17 37 -37 64
-52 71 -16 8 -24 19 -24 36 0 22 3 24 30 19 33 -7 37 -2 17 22 -11 13 -11 21
-1 40 11 22 12 21 19 -20 6 -40 59 -149 72 -149 3 0 -7 20 -22 46 -14 25 -28
63 -30 85 -3 34 0 42 23 56 76 48 152 126 183 188 29 59 31 71 27 139 -6 86
-34 144 -97 198 -49 41 -132 89 -112 65 21 -26 1 -20 -63 19 -45 27 -61 32
-67 22 -9 -15 -5 -19 -58 60 -24 35 -56 75 -72 90 -17 14 -46 52 -65 84 -34
55 -45 63 -87 59 -9 -1 -32 8 -50 20 -17 12 -33 23 -34 24 -1 0 -7 34 -14 75
-6 41 -22 102 -35 135 -13 33 -17 52 -10 42 9 -11 15 -14 18 -7 2 7 33 -32 68
-86 63 -96 132 -177 157 -185 7 -2 30 -27 50 -55 73 -99 161 -210 177 -223 10
-8 -16 34 -56 94 -44 66 -109 144 -165 200 -51 50 -121 132 -155 183 -35 50
-89 128 -121 172 -31 44 -75 120 -97 169 -21 49 -54 111 -73 138 -53 74 -94
152 -116 223 -27 84 -54 128 -89 141 -34 14 -249 26 -322 18z m100 -308 c3 -3
27 -17 55 -31 42 -21 51 -30 56 -60 3 -19 10 -44 16 -55 6 -11 9 -25 6 -31 -2
-6 6 -19 17 -29 11 -10 20 -24 20 -31 0 -7 6 -15 13 -17 6 -3 -1 -6 -17 -6
-19 -1 -27 3 -23 12 3 7 -3 13 -12 13 -13 0 -16 -7 -14 -26 l4 -25 -17 23
c-16 22 -54 31 -54 13 0 -15 30 -41 46 -41 25 0 29 -1 47 -18 13 -11 17 -26
14 -47 -2 -16 0 -41 5 -54 12 -32 27 -101 22 -101 -2 0 -11 18 -20 40 -9 22
-25 45 -35 51 -11 5 -19 16 -19 24 0 8 -9 15 -19 15 -11 0 -41 11 -68 24 -26
14 -49 23 -51 21 -2 -1 13 -20 32 -41 36 -39 49 -68 21 -44 -11 9 -15 9 -15 1
0 -7 -4 -9 -10 -6 -6 3 -7 -1 -4 -9 6 -16 -11 -23 -18 -8 -1 4 -22 22 -45 40
-27 21 -43 28 -45 20 -4 -10 -9 -10 -29 0 -13 7 -16 10 -7 8 12 -3 15 -1 11 9
-3 8 -9 12 -14 9 -5 -3 -9 2 -9 10 0 9 -4 16 -8 16 -17 0 -21 -12 -12 -36 12
-31 7 -31 -92 10 -46 18 -100 39 -120 46 -41 12 -60 31 -31 28 34 -3 54 2 49
11 -11 18 6 41 30 41 25 0 33 15 12 23 -7 2 -26 0 -41 -4 -42 -12 -77 8 -47
26 6 4 8 10 5 15 -3 4 12 11 33 15 20 4 63 18 94 31 32 13 74 24 95 25 21 0
61 7 88 13 40 10 46 14 30 20 -11 4 -33 13 -48 18 -18 7 -24 14 -17 18 9 6 9
10 -1 16 -10 6 4 12 41 19 52 11 89 9 100 -4z m-270 -414 c0 -7 16 -19 36 -26
19 -7 69 -45 110 -84 41 -40 89 -77 107 -84 23 -9 27 -12 12 -13 l-20 -1 20
-10 c16 -7 14 -8 -10 -3 -16 3 -31 10 -33 15 -2 5 -8 9 -13 9 -15 0 21 -61 54
-91 17 -15 35 -25 40 -22 6 3 7 1 3 -6 -4 -6 -16 -9 -27 -6 -26 8 -24 -4 6
-45 26 -35 26 -58 0 -24 -26 32 -54 91 -48 98 4 3 1 6 -5 6 -11 0 -35 60 -38
93 -1 10 -9 26 -17 35 -15 14 -16 13 -12 -11 3 -15 9 -37 15 -51 7 -19 5 -28
-7 -38 -12 -10 -17 -10 -20 -1 -2 7 -11 9 -19 6 -8 -3 -14 0 -14 6 0 6 7 11
15 11 16 0 17 2 19 51 1 40 -60 123 -94 127 -18 3 -22 1 -14 -7 19 -20 4 -71
-22 -77 -28 -7 -54 1 -54 16 0 7 6 8 19 0 52 -27 72 42 24 80 -20 16 -36 20
-58 16 l-30 -5 28 15 c15 8 27 19 27 24 0 6 5 10 10 10 6 0 10 -6 10 -13z m66
-340 l-6 -29 48 7 c38 5 45 4 35 -6 -22 -22 -14 -32 20 -25 26 5 29 3 17 -7
-19 -16 -23 -50 -5 -43 8 3 17 -3 20 -14 7 -22 37 -34 63 -26 23 8 56 -22 82
-74 11 -21 24 -41 30 -45 18 -11 11 -43 -22 -92 -64 -96 -170 -184 -235 -198
-28 -5 -38 0 -100 53 -106 92 -128 121 -166 212 -49 117 -69 191 -62 231 8 47
18 53 59 39 42 -14 60 -34 22 -24 -21 5 -25 3 -21 -9 4 -8 0 -17 -8 -20 -10
-4 -13 -14 -10 -31 5 -27 26 -49 22 -25 -4 33 1 41 16 25 8 -8 15 -21 15 -29
0 -18 50 -17 73 1 13 11 19 10 36 -7 39 -39 16 11 -32 71 -17 21 -28 40 -26
42 2 2 31 11 64 21 33 10 54 20 47 22 -6 3 -10 9 -7 13 3 5 13 6 21 3 12 -4
14 -14 10 -36z m587 -144 c21 -29 81 -89 133 -134 52 -44 94 -84 94 -89 0 -4
6 -7 13 -6 6 0 13 -3 14 -7 4 -16 139 -76 208 -92 39 -10 96 -24 128 -33 31
-8 60 -12 63 -9 9 8 3 10 -156 56 -74 22 -151 45 -171 53 -40 15 -105 67 -101
80 1 5 -2 7 -7 4 -5 -3 -28 12 -52 34 l-44 40 22 19 22 18 -25 12 c-33 15 -37
14 -30 -4 3 -8 1 -15 -4 -15 -6 0 -10 6 -10 14 0 8 -2 20 -3 28 -2 7 -2 10 0
6 3 -5 12 -8 21 -8 10 0 26 -7 36 -15 11 -8 30 -15 44 -15 13 0 21 -3 19 -7
-3 -5 6 -9 19 -9 15 -1 21 2 17 9 -4 7 0 8 13 3 44 -18 54 -19 48 -2 -11 28
25 30 95 7 77 -27 171 -72 171 -83 0 -4 -9 -8 -19 -8 -11 0 -23 -4 -26 -10 -3
-6 1 -7 9 -4 9 3 16 2 16 -3 0 -5 8 -9 18 -10 46 -3 82 -13 112 -31 l32 -20
-42 -7 c-37 -6 -45 -4 -71 21 -22 21 -29 24 -29 11 0 -9 8 -20 17 -26 16 -8
14 -10 -10 -16 -18 -5 -36 -2 -53 10 -32 21 -60 13 -45 -12 6 -10 19 -28 29
-39 20 -24 21 -24 251 5 101 13 124 5 156 -53 19 -34 20 -43 9 -65 -25 -52
-37 -86 -35 -101 1 -11 -1 -10 -9 3 -6 9 -8 22 -4 29 5 7 3 8 -5 4 -7 -5 -20
-1 -29 7 -19 17 -102 60 -102 53 0 -3 27 -25 59 -51 62 -47 78 -73 63 -101 -8
-14 -10 -14 -15 5 -3 12 -1 19 4 15 5 -3 9 0 9 5 0 6 -7 11 -16 11 -8 0 -13 4
-9 9 9 16 -36 50 -80 62 -22 6 -56 19 -75 30 -45 24 -109 47 -185 65 -116 29
-192 55 -232 82 -57 38 -213 189 -286 279 -85 103 -107 136 -61 88 22 -22 57
-63 77 -92z m-1579 -305 c-11 -49 -6 -80 16 -102 16 -16 22 -17 34 -6 9 7 16
18 16 24 0 6 7 22 16 34 15 22 16 22 46 5 32 -19 108 -97 108 -111 0 -5 -15
-26 -33 -48 -82 -97 -105 -155 -83 -208 12 -30 11 -32 -27 -59 -39 -29 -65
-74 -74 -134 l-6 -34 -20 33 c-17 28 -19 43 -13 118 5 69 3 89 -9 108 -9 12
-23 22 -31 22 -8 0 -14 5 -14 11 0 6 -10 24 -21 41 l-21 29 23 25 c22 23 22
27 10 72 -6 25 -16 49 -22 52 -5 4 11 25 36 49 25 23 48 54 51 69 8 31 13 42
20 42 3 0 2 -15 -2 -32z m1549 -484 c35 -6 37 -8 22 -24 -11 -12 -13 -20 -6
-25 6 -3 14 1 17 9 3 9 10 16 15 16 6 0 6 -7 1 -17 -5 -11 -5 -58 0 -112 9
-98 -2 -154 -28 -144 -7 2 -15 0 -19 -6 -9 -16 -25 -13 -25 4 0 8 -4 15 -8 15
-16 0 -44 99 -49 177 -8 117 -6 121 80 107z m-904 -109 c8 -43 18 -72 23 -69
6 4 7 19 4 35 -6 30 7 48 21 27 12 -20 31 -98 21 -92 -4 3 -8 -6 -8 -20 0 -25
14 -43 23 -29 2 5 2 2 0 -6 -2 -7 2 -21 9 -30 8 -9 3 -8 -11 4 -13 11 -32 38
-42 60 l-18 40 2 -38 c1 -20 5 -37 10 -37 4 0 7 -9 7 -20 0 -10 8 -24 18 -29
12 -7 13 -10 3 -11 -11 0 -9 -5 5 -21 19 -22 19 -22 -2 -11 -11 6 -29 27 -39
46 -20 37 -50 51 -38 19 7 -17 6 -17 -11 -1 -9 10 -14 23 -10 29 4 7 3 9 -3 6
-12 -7 -24 15 -28 48 -2 11 -6 46 -10 78 -7 48 -5 61 10 77 35 39 50 26 64
-55z m-587 -184 c10 -14 27 -44 38 -68 10 -23 29 -53 42 -66 37 -37 103 -138
121 -185 10 -23 17 -70 18 -105 1 -46 3 -56 9 -37 7 21 8 18 9 -19 1 -48 -38
-119 -98 -175 -28 -27 -32 -28 -61 -16 -16 7 -30 17 -30 22 0 5 -5 6 -12 2 -7
-4 -8 -3 -4 5 4 6 12 9 17 6 5 -4 9 -2 9 4 0 10 -20 32 -48 53 -10 7 -25 25
-35 40 -9 15 -27 33 -39 39 -22 12 -22 11 -5 -8 21 -24 22 -34 2 -27 -11 5
-14 1 -9 -12 3 -11 -19 7 -49 39 -82 86 -122 177 -143 325 -9 67 -14 128 -11
136 11 27 27 17 27 -16 0 -41 6 -34 13 17 4 23 3 34 -2 26 -5 -8 -11 -9 -14
-3 -4 5 11 28 32 50 22 22 56 68 77 102 l37 60 45 -82 c25 -46 53 -94 64 -107z
m273 35 c33 -18 65 -42 70 -52 6 -11 20 -34 33 -51 34 -47 27 -49 -25 -6 -54
43 -115 77 -155 87 -16 3 -28 11 -28 16 0 6 -11 10 -25 10 -14 0 -25 -4 -25
-10 0 -5 -15 -10 -32 -10 l-33 -1 25 -14 25 -14 -23 -1 c-27 0 -82 26 -82 40
0 6 10 10 23 10 12 1 33 7 47 15 14 8 52 14 85 15 50 0 70 -6 120 -34z m40
-101 c80 -56 88 -66 135 -150 38 -69 45 -90 49 -157 4 -42 3 -74 -1 -71 -5 2
-8 11 -8 19 0 21 -51 127 -57 120 -3 -3 0 -13 7 -21 10 -12 10 -19 2 -27 -9
-9 -12 -8 -12 5 0 9 -5 17 -11 17 -7 0 -5 -10 6 -26 9 -14 14 -28 12 -30 -6
-6 -137 190 -137 204 0 16 -79 112 -98 119 -9 4 -30 15 -46 24 l-30 18 24 9
c33 12 104 -10 165 -53z m1472 -9 c42 -48 55 -140 22 -149 -13 -4 -19 -14 -19
-32 0 -24 -2 -26 -16 -14 -17 14 -16 3 12 -95 17 -61 17 -66 0 -66 -9 0 -12 9
-10 28 2 15 1 19 -2 9 -7 -23 -91 149 -100 203 -3 19 -9 43 -15 52 -13 24 -11
28 7 21 11 -4 27 6 50 31 18 20 37 36 42 36 4 0 18 -11 29 -24z m406 -23 c-4
-11 -3 -14 6 -9 6 4 11 4 10 -1 -1 -4 1 -16 6 -27 5 -11 2 -37 -7 -65 -9 -25
-26 -80 -38 -121 -15 -48 -33 -84 -51 -103 -16 -16 -29 -32 -29 -35 0 -26 -23
-81 -35 -86 -25 -9 -13 107 18 179 14 33 21 62 16 63 -14 6 1 71 28 124 33 63
94 129 76 81z m-573 -143 c18 -27 51 -94 75 -147 23 -54 68 -154 99 -223 85
-189 69 -197 -29 -15 -12 22 -36 63 -53 90 -17 28 -32 58 -32 68 0 9 -4 25 -9
35 -18 32 -61 152 -61 168 0 8 -7 28 -15 44 -24 46 -11 35 25 -20z m680 -64
c0 -7 9 -25 21 -40 15 -19 19 -34 14 -56 -4 -17 -11 -30 -16 -30 -5 0 -9 -13
-9 -29 0 -17 -4 -32 -9 -35 -4 -3 -11 -24 -15 -48 -13 -79 -40 -158 -53 -153
-7 2 -13 0 -13 -5 0 -20 -2 -25 -13 -39 -6 -7 -12 -18 -14 -25 -6 -32 -32 -91
-40 -93 -6 -2 -16 31 -23 73 -11 62 -11 94 -1 173 7 53 17 113 22 133 12 49
86 159 110 165 11 3 19 9 19 14 0 5 5 9 10 9 6 0 10 -6 10 -14z m67 -156 c0
-33 15 -109 34 -172 33 -117 37 -154 18 -200 -13 -33 -17 -34 -35 -10 -9 11
-13 13 -14 4 0 -7 -5 -10 -10 -7 -6 3 -22 -3 -37 -15 -25 -20 -27 -20 -37 -3
-6 10 -11 20 -11 23 -1 3 -6 21 -13 42 -11 32 -10 45 12 115 48 154 66 217 66
230 0 13 17 53 23 53 1 0 3 -27 4 -60z m98 -369 c-2 -5 -1 -22 4 -38 10 -36
-6 -206 -20 -211 -5 -2 -9 -8 -9 -14 0 -14 -51 -78 -62 -78 -5 0 -7 3 -5 8 3
4 8 41 11 82 4 43 17 101 31 136 14 35 25 71 25 82 0 30 11 53 21 46 5 -3 7
-9 4 -13z m-772 -238 c12 -21 36 -67 52 -103 16 -36 33 -69 37 -74 13 -17 -25
95 -50 144 -11 22 -10 21 12 -5 14 -16 26 -26 26 -21 0 19 52 -40 81 -91 20
-34 34 -77 40 -121 5 -37 13 -78 18 -92 15 -42 22 -92 11 -85 -6 4 -10 -14
-10 -44 l0 -50 -32 5 c-57 10 -56 8 -45 61 8 39 7 55 -6 83 -9 19 -37 97 -64
174 -35 102 -57 147 -80 173 -31 33 -45 83 -23 83 5 0 20 -17 33 -37z m417
-153 c136 -157 202 -294 180 -371 -5 -17 -10 -49 -12 -70 -3 -51 -14 -50 -22
1 -3 23 -11 49 -16 58 -5 9 -39 89 -76 177 -37 88 -75 171 -84 185 -30 44 -75
140 -56 119 2 -2 41 -47 86 -99z m862 0 c12 -11 29 -20 37 -20 21 0 104 -131
136 -213 10 -26 22 -44 27 -41 6 4 8 -1 4 -13 -4 -14 7 -33 45 -71 28 -29 49
-52 46 -52 -3 0 1 -24 9 -52 24 -91 21 -96 -71 -103 -51 -4 -58 3 -69 70 -8
51 -54 164 -111 272 -25 46 -42 89 -39 95 4 6 2 8 -3 5 -6 -4 -14 0 -17 9 -3
8 -2 12 4 9 11 -7 14 8 3 19 -9 8 -33 77 -33 94 0 17 7 15 32 -8z m-960 -47
c27 -31 56 -96 76 -173 32 -121 40 -159 31 -162 -5 -2 -9 -18 -11 -35 -2 -32
-4 -33 -44 -33 -41 0 -42 1 -53 44 -6 25 -11 110 -11 189 0 109 -3 147 -13
156 -8 6 -17 8 -20 4 -4 -3 -7 -2 -7 4 0 27 30 30 52 6z m-1155 -117 c83 -16
229 -77 216 -89 -3 -4 -23 -5 -42 -2 -35 5 -35 4 -6 -4 17 -5 87 -11 158 -14
170 -5 198 -29 72 -61 -91 -24 -175 -21 -253 10 -59 24 -152 78 -152 89 0 2
24 -7 53 -20 28 -13 66 -27 82 -30 55 -13 -62 55 -134 77 -36 11 -75 25 -86
31 -19 10 -18 12 10 18 17 3 38 5 47 2 9 -2 25 -5 35 -7z m-16 -87 c19 -15 65
-43 102 -63 38 -20 62 -36 53 -36 -18 0 -20 -13 -7 -39 15 -28 88 -74 103 -65
10 6 10 4 -1 -9 -14 -17 -7 -21 36 -20 7 1 10 -3 7 -8 -3 -5 0 -9 7 -9 7 0 10
-3 7 -6 -7 -6 -85 19 -127 40 -30 16 -225 217 -243 250 -10 19 -10 20 9 6 12
-8 36 -27 54 -41z m-656 -106 c-57 -155 -224 -387 -297 -412 -15 -6 -28 -7
-28 -4 0 3 28 32 63 65 64 61 62 64 -11 14 -46 -31 -62 -29 -44 7 6 12 13 31
17 43 3 12 44 59 92 105 47 46 97 95 109 108 13 13 30 21 38 18 11 -5 23 10
43 53 32 70 44 71 18 3z m1169 -15 c-5 -8 6 -10 42 -5 68 8 104 0 96 -22 -7
-19 -55 -66 -68 -66 -12 -1 -71 -36 -98 -58 l-21 -19 23 5 c12 3 22 0 23 -6 0
-8 2 -8 6 1 2 6 9 12 14 12 6 0 7 -5 3 -12 -4 -7 -3 -8 5 -4 6 4 9 11 6 16 -3
4 2 13 10 20 12 10 15 9 15 -8 0 -30 -20 -41 -70 -36 -75 6 -190 34 -140 34
10 0 10 3 0 15 -22 26 -101 76 -111 69 -5 -3 -8 -1 -7 5 2 6 -10 22 -27 37
-21 18 -24 23 -10 18 11 -4 52 -15 90 -25 81 -21 127 -17 182 17 44 27 47 28
37 12z m234 -40 c5 -7 17 -48 26 -91 9 -44 18 -83 22 -88 11 -18 -19 -8 -48
16 -32 27 -121 57 -143 48 -26 -9 -17 22 14 51 29 27 99 75 112 76 4 0 11 -6
17 -12z m236 -113 c-4 -8 -1 -15 5 -15 5 0 29 -27 51 -60 24 -35 35 -60 28
-60 -9 0 -9 -3 2 -11 12 -9 11 -9 -5 -4 -11 4 -29 9 -40 11 l-20 4 20 -9 c17
-7 14 -10 -25 -21 -25 -6 -57 -23 -71 -36 l-26 -25 -6 22 c-3 12 -3 59 0 104
6 86 9 91 63 108 26 9 30 7 24 -8z m314 -117 c6 -6 12 -16 12 -23 0 -7 8 -23
19 -36 23 -30 35 -80 26 -118 l-6 -28 -37 34 c-52 47 -66 59 -85 66 -12 4 -17
18 -17 44 l1 38 15 -27 c8 -16 17 -28 19 -28 2 0 1 23 -2 51 -6 51 -6 51 18
44 13 -4 30 -12 37 -17z m-1993 -156 c16 -9 17 -13 6 -21 -7 -5 -13 -20 -13
-35 0 -22 -5 -26 -30 -26 -21 0 -29 -4 -25 -13 3 -8 -3 -20 -14 -28 -10 -7
-19 -18 -19 -25 0 -6 -9 -22 -20 -35 -12 -12 -30 -38 -41 -56 -11 -18 -25 -33
-30 -33 -5 0 -9 -7 -9 -15 0 -11 -8 -13 -30 -9 -25 5 -31 3 -39 -17 -4 -13 -6
-30 -4 -36 3 -7 -1 -14 -8 -14 -31 -3 -36 -5 -55 -23 -19 -19 -19 -19 -27 33
-6 38 -4 81 7 146 20 120 33 148 63 142 15 -3 23 1 23 10 0 8 4 12 9 9 5 -3
12 10 15 29 4 20 11 33 17 30 5 -4 6 -11 3 -17 -4 -6 -1 -9 5 -7 7 3 12 8 11
13 -1 5 6 13 15 19 12 6 20 4 30 -10 8 -10 15 -21 15 -25 0 -5 5 -8 10 -8 6 0
4 15 -5 36 -17 42 -20 74 -5 74 6 0 10 -4 10 -10 0 -5 5 -10 10 -10 6 0 10 8
10 19 0 14 11 7 48 -29 26 -26 56 -52 67 -58z m1099 -159 c36 -14 63 -30 60
-35 -3 -4 0 -8 5 -8 14 0 14 13 0 27 -8 8 -6 13 9 17 29 10 103 3 98 -9 -1 -5
-10 -9 -18 -7 -19 3 -52 -33 -43 -47 3 -6 21 -18 38 -27 l32 -15 -22 20 c-30
25 -31 46 -3 31 11 -6 25 -8 30 -5 6 4 9 1 8 -6 -2 -7 10 -16 27 -19 30 -7 24
-13 -20 -23 -15 -4 -14 -5 6 -6 15 0 38 8 53 20 21 17 24 24 15 35 -26 31 2
25 35 -8 45 -45 60 -101 45 -163 -14 -54 -35 -75 -25 -24 13 61 12 113 -1 142
-17 33 -23 35 -21 3 2 -27 -20 -76 -34 -76 -13 0 -38 -26 -38 -39 0 -6 -9 -15
-20 -21 -10 -6 -18 -16 -16 -23 1 -6 1 -8 -2 -3 -2 4 -9 2 -14 -5 -5 -9 -6 -4
-2 14 7 29 -11 61 -28 51 -5 -3 -17 0 -26 8 -28 23 -72 39 -72 26 0 -6 -8 -4
-19 6 -12 11 -21 14 -26 7 -9 -15 4 -33 18 -25 7 3 4 -1 -5 -8 -16 -13 -15
-17 8 -55 13 -23 39 -50 56 -62 18 -11 26 -21 18 -21 -18 0 -100 79 -100 97 0
8 -7 25 -16 38 -9 13 -13 28 -10 33 3 5 -3 17 -14 27 -11 10 -20 23 -20 28 0
6 -7 18 -15 27 -14 15 -14 19 -1 30 13 10 21 6 45 -21 17 -18 28 -35 25 -38
-3 -3 -19 10 -35 29 -16 19 -29 30 -29 24 0 -16 58 -74 74 -74 22 0 21 3 -20
63 -38 55 -65 76 -101 77 -12 0 -25 5 -28 10 -12 20 76 10 139 -17z m1614
-211 c47 -49 86 -118 108 -191 27 -90 54 -253 53 -324 -1 -68 -2 -70 -9 -27
-5 25 -13 56 -19 70 -11 24 -11 24 -8 -7 2 -18 0 -33 -4 -33 -14 0 -31 60 -25
87 5 20 4 24 -3 13 -9 -13 -10 -13 -15 0 -89 284 -118 351 -170 402 -34 33
-35 37 -21 52 25 25 64 10 113 -42z m-187 -32 c25 -14 85 -133 104 -207 16
-62 20 -147 6 -125 -5 8 -10 -23 -14 -77 -4 -49 -14 -108 -23 -130 l-16 -41
-20 23 -19 22 4 -27 c2 -16 -1 -36 -8 -45 -11 -15 -12 -7 -10 47 2 36 2 59 -1
52 -3 -6 -9 -10 -14 -7 -4 3 -6 -5 -2 -17 4 -16 2 -19 -8 -13 -10 6 -12 3 -8
-13 4 -14 2 -20 -5 -15 -6 4 -8 -2 -5 -15 4 -12 2 -22 -4 -22 -6 0 -8 -7 -4
-15 3 -8 1 -15 -4 -15 -6 0 -10 -7 -10 -16 0 -8 -4 -13 -9 -9 -6 3 -3 27 7 58
12 39 17 89 17 197 0 129 -2 150 -22 194 -30 63 -29 84 1 28 21 -40 23 -42 37
-26 8 10 9 15 3 11 -7 -4 -14 2 -17 14 -4 15 -2 19 9 15 22 -9 18 82 -6 121
-21 36 -7 60 16 28 8 -10 17 -16 21 -12 3 4 -2 16 -12 27 -20 22 -14 26 16 10z
m-86 -239 c25 -50 36 -164 25 -256 -11 -85 -48 -209 -73 -246 l-15 -21 -8 24
c-4 12 -8 30 -9 38 -1 8 -9 31 -18 50 -14 33 -18 58 -32 207 l-6 62 46 20 c25
11 45 26 46 33 1 7 2 27 4 44 3 33 14 74 20 74 3 0 11 -13 20 -29z m-2634
-105 c1 5 5 -9 10 -31 4 -22 5 -54 2 -72 l-5 -32 63 -3 c50 -2 64 -7 67 -20 5
-25 -63 -94 -137 -138 -91 -55 -118 -80 -124 -118 -3 -18 -11 -40 -18 -48 -14
-18 -22 -71 -10 -78 5 -3 19 3 31 14 13 11 25 20 27 20 9 0 -53 -97 -76 -120
-14 -14 -38 -41 -53 -60 l-27 -35 -1 55 c0 44 7 69 36 126 26 51 38 92 44 145
15 130 36 195 106 332 8 16 14 37 14 47 0 22 20 31 38 17 6 -5 13 -6 13 -1z
m753 -1071 c3 -10 -3 -17 -21 -21 l-27 -7 25 -10 c13 -6 29 -9 34 -7 41 11 85
7 101 -11 20 -22 7 -25 -20 -4 -11 8 -28 15 -38 15 -27 0 -11 -28 22 -35 23
-5 150 -113 150 -128 0 -15 -123 27 -149 51 -7 7 -16 10 -20 7 -3 -4 5 -16 19
-28 28 -24 34 -72 10 -72 -8 0 -14 7 -12 16 1 10 -4 16 -14 15 -11 -1 -21 13
-30 45 -16 55 -50 93 -38 43 l7 -29 -22 27 c-11 14 -21 35 -21 45 0 10 -9 25
-20 33 -19 14 -19 15 13 42 37 32 43 33 51 13z m-108 -26 c17 -13 16 -175 -1
-215 -17 -42 -33 -44 -27 -4 3 23 0 30 -13 30 -9 0 -23 6 -31 14 -15 16 -19
30 -5 22 5 -3 14 1 21 9 15 18 10 18 -24 5 -24 -9 -25 -8 -19 23 6 36 29 77
43 77 14 0 21 -18 10 -25 -5 -3 -10 -18 -10 -33 0 -27 0 -27 21 7 11 19 25 45
29 57 8 19 6 22 -6 17 -15 -5 -33 11 -34 29 0 8 29 0 46 -13z m-105 -26 c-20
-25 -27 -41 -21 -47 6 -6 10 -14 10 -19 0 -5 -7 -1 -16 7 -8 9 -20 16 -25 16
-17 0 -9 -19 12 -30 20 -11 21 -37 2 -33 -12 2 -13 -30 -2 -37 4 -3 4 -12 -1
-20 -8 -13 -10 -13 -10 0 0 18 -59 22 -61 5 -3 -21 -53 -42 -79 -34 -14 5 -55
13 -92 18 -102 14 -202 72 -133 78 11 0 27 2 35 2 8 1 -3 10 -25 20 l-40 18
58 8 c68 9 161 -7 189 -32 18 -16 19 -16 25 5 5 22 26 32 73 34 25 1 60 24 60
39 0 4 -15 9 -32 11 l-33 4 29 9 c21 5 31 5 34 -3 5 -17 27 -15 42 3 7 8 17
15 22 15 5 0 -4 -17 -21 -37z m1845 17 c44 -17 126 -120 95 -120 -5 0 -12 11
-15 25 -7 26 -72 82 -83 71 -4 -4 7 -18 25 -32 18 -14 30 -29 27 -34 -3 -4 2
-10 10 -14 24 -9 18 -28 -6 -21 -15 5 -19 4 -15 -4 4 -6 3 -11 -3 -11 -5 0
-12 9 -16 19 -7 22 -65 35 -65 14 0 -7 -6 -13 -14 -13 -8 0 -22 -10 -30 -22
-9 -12 -16 -18 -16 -12 0 6 9 23 20 37 39 49 13 68 -27 20 -17 -21 -22 -24
-23 -11 0 9 7 23 15 31 8 8 11 17 8 21 -3 3 0 13 8 23 12 15 12 16 -4 10 -11
-4 -16 -3 -12 3 6 9 56 27 82 29 6 1 24 -4 39 -9z m-1076 -265 c12 -4 15 -15
12 -45 -6 -64 3 -76 33 -46 50 50 77 23 68 -68 -4 -40 -16 -74 -40 -114 -42
-69 -52 -115 -30 -140 21 -23 13 -75 -18 -116 -17 -22 -28 -54 -35 -105 -6
-40 -8 -76 -6 -79 7 -12 -14 -123 -29 -151 -7 -15 -16 -56 -19 -91 -7 -68 -32
-124 -46 -99 -4 8 -10 68 -13 133 -5 86 -11 123 -22 136 -28 31 -19 109 20
183 31 59 34 70 26 110 -4 25 -18 58 -29 75 -32 45 -30 139 4 212 23 48 25 63
20 124 -9 97 7 109 104 81z"/>
</g>
</svg>
